<svg width="347" height="424" viewBox="0 0 347 424" fill="none" xmlns="http://www.w3.org/2000/svg">
<path fill-rule="evenodd" clip-rule="evenodd" d="M381.011 297.231H275.428L280.994 291.665L300.826 271.833C314.68 257.979 314.68 235.517 300.826 221.662C286.972 207.808 264.51 207.808 250.656 221.663L189.243 283.075L185.886 286.432L185.864 286.417L59.3065 412.975C45.7664 426.515 23.8137 426.515 10.2736 412.975C-3.26645 399.435 -3.26645 377.482 10.2736 363.942L164.309 209.906C167.201 202.488 171.728 195.393 178.069 189.052L258.288 108.833L294.799 73.6033C297.654 62.4204 294.705 50.0613 285.952 41.3083C272.751 28.1078 251.349 28.1078 238.149 41.3083L78.1483 201.309L78.147 201.304L59.3065 220.145C45.7664 233.685 23.8137 233.685 10.2736 220.145C-2.33023 207.541 -3.20172 187.647 7.65915 174.035C8.47 173.018 9.34634 172.035 10.2882 171.093L75.456 105.926V-8.30515C75.456 -41.3648 102.145 -68.191 135.152 -68.413C135.582 -68.422 136.013 -68.4266 136.445 -68.4266H376.005L376.002 -68.4329H378.767C377.938 -70.3154 377.016 -72.1728 376.002 -73.999H381.011C411.96 -73.999 437.447 -50.6085 440.756 -20.5408C441.572 -16.594 442 -12.5057 442 -8.31744V15.7475C442 19.2147 441.701 22.6429 441.12 25.9997V58.7421V64.3083V231.556V237.122C441.12 270.319 414.208 297.231 381.011 297.231Z" fill="url(#paint0_linear_272_17703)"/>
<defs>
<linearGradient id="paint0_linear_272_17703" x1="351.5" y1="-20.999" x2="45.5" y2="384.501" gradientUnits="userSpaceOnUse">
<stop stop-color="#8F00FF" stop-opacity="0"/>
<stop offset="1" stop-color="#8F00FF" stop-opacity="0.06"/>
</linearGradient>
</defs>
</svg>
