<svg width="22" height="22" viewBox="0 0 22 22" fill="none" xmlns="http://www.w3.org/2000/svg">
<path d="M5.74805 2.24829H16.248C18.181 2.24829 19.748 3.81529 19.748 5.74829V16.2483C19.748 18.1813 18.181 19.7483 16.248 19.7483H5.74805C3.81505 19.7483 2.24805 18.1813 2.24805 16.2483V5.74829C2.24805 3.81529 3.81505 2.24829 5.74805 2.24829ZM5.74805 3.99829C4.78155 3.99829 3.99805 4.78179 3.99805 5.74829V16.2483C3.99805 17.2148 4.78155 17.9983 5.74805 17.9983H16.248C17.2145 17.9983 17.998 17.2148 17.998 16.2483V5.74829C17.998 4.78179 17.2145 3.99829 16.248 3.99829H5.74805ZM7.49805 8.37329C7.0148 8.37329 6.62305 7.98154 6.62305 7.49829C6.62305 7.01504 7.0148 6.62329 7.49805 6.62329H11.873C12.3563 6.62329 12.748 7.01504 12.748 7.49829C12.748 7.98154 12.3563 8.37329 11.873 8.37329H7.49805ZM7.49805 15.3733C7.0148 15.3733 6.62305 14.9815 6.62305 14.4983C6.62305 14.015 7.0148 13.6233 7.49805 13.6233H10.123C10.6063 13.6233 10.998 14.015 10.998 14.4983C10.998 14.9815 10.6063 15.3733 10.123 15.3733H7.49805ZM7.49805 11.8733C7.0148 11.8733 6.62305 11.4815 6.62305 10.9983C6.62305 10.515 7.0148 10.1233 7.49805 10.1233H14.498C14.9813 10.1233 15.373 10.515 15.373 10.9983C15.373 11.4815 14.9813 11.8733 14.498 11.8733H7.49805Z" fill="#8F00FF"/>
</svg>
