<svg width="181" height="33" viewBox="0 0 181 33" fill="none" xmlns="http://www.w3.org/2000/svg">
<g clip-path="url(#clip0_531_317)">
<path fill-rule="evenodd" clip-rule="evenodd" d="M14.2438 16.3743C12.5532 16.2091 10.7729 16.6053 9.17376 17.7051L1.04829 23.2939C-0.205859 24.1565 -0.955078 25.5812 -0.955078 27.1033C-0.955078 29.6568 1.11495 31.7269 3.66846 31.7269H13.5304C17.7761 31.7269 21.218 28.285 21.218 24.0392C21.218 23.1577 21.0773 22.3277 20.8211 21.5625L25.2229 17.1422C26.0439 16.3177 26.0439 14.9809 25.2229 14.1565C24.4079 13.3381 23.0903 13.332 22.2679 14.1383L11.4057 25.0461C10.6053 25.8499 9.30751 25.8499 8.50706 25.0461C7.70661 24.2423 7.70661 22.939 8.50706 22.1352L14.2438 16.3743Z" fill="#DFD8F4"/>
<g filter="url(#filter0_d_531_317)">
<path fill-rule="evenodd" clip-rule="evenodd" d="M8.48984 10.1172C7.64487 9.70054 6.67498 9.46087 5.60561 9.46087C2.01137 9.46087 -0.902344 12.3746 -0.902344 15.9688V23.6441V27.7785C-0.902344 29.9592 0.865521 31.7271 3.04629 31.7271C2.15001 30.107 2.45097 28.0872 3.78064 26.7988L10.1842 20.594C12.3083 18.461 12.5519 15.5375 11.4828 13.2216L10.646 14.0619C9.80595 14.9056 8.4439 14.9056 7.60381 14.0619C6.76372 13.2183 6.76372 11.8506 7.60381 11.0069L8.48984 10.1172ZM22.2497 2.41329C23.0707 1.5888 24.4019 1.5888 25.223 2.41329C26.044 3.23778 26.044 4.57454 25.223 5.39902L15.4156 15.2475C14.5946 16.072 13.2634 16.072 12.4424 15.2475C11.6213 14.423 11.6213 13.0863 12.4424 12.2618L22.2497 2.41329Z" fill="white"/>
</g>
<path d="M92.7348 16.5331H90.6513V26.0022H87.6012V16.5331H86.248V14.0526H87.6012V13.4486C87.6012 11.9819 88.0165 10.9034 88.8471 10.2132C89.6776 9.52298 90.9306 9.19944 92.606 9.24258V11.7878C91.8757 11.7734 91.3673 11.8956 91.0809 12.1545C90.7945 12.4133 90.6513 12.8806 90.6513 13.5565V14.0526H92.7348V16.5331Z" fill="white"/>
<path d="M81.4273 12.6292C80.8975 12.6292 80.4536 12.4638 80.0956 12.1331C79.7519 11.788 79.5801 11.3638 79.5801 10.8605C79.5801 10.3572 79.7519 9.9402 80.0956 9.60947C80.4536 9.26435 80.8975 9.0918 81.4273 9.0918C81.9571 9.0918 82.3939 9.26435 82.7376 9.60947C83.0955 9.9402 83.2745 10.3572 83.2745 10.8605C83.2745 11.3638 83.0955 11.788 82.7376 12.1331C82.3939 12.4638 81.9571 12.6292 81.4273 12.6292ZM82.9094 14.0528V26.0024H79.9023V14.0528H82.9094Z" fill="white"/>
<path d="M97.3336 12.6292C96.8037 12.6292 96.3598 12.4638 96.0018 12.1331C95.6582 11.788 95.4863 11.3638 95.4863 10.8605C95.4863 10.3572 95.6582 9.9402 96.0018 9.60947C96.3598 9.26435 96.8037 9.0918 97.3336 9.0918C97.8634 9.0918 98.3001 9.26435 98.6438 9.60947C99.0018 9.9402 99.1808 10.3572 99.1808 10.8605C99.1808 11.3638 99.0018 11.788 98.6438 12.1331C98.3001 12.4638 97.8634 12.6292 97.3336 12.6292ZM98.8156 14.0528V26.0024H95.8085V14.0528H98.8156Z" fill="white"/>
<path d="M73.9736 16.5334V22.314C73.9736 22.7167 74.0667 23.0115 74.2528 23.1984C74.4533 23.371 74.7826 23.4572 75.2409 23.4572H76.637V26.0024H74.7468C72.2123 26.0024 70.945 24.7658 70.945 22.2925V16.5334H69.5273V14.0529H70.945V11.0979L73.9736 10.209V14.0529H76.637V16.5334H73.9736Z" fill="white"/>
<path d="M63.6907 15.9079C64.0773 15.2752 64.5785 14.7791 65.1943 14.4196C65.8243 14.0601 66.5403 13.8804 67.3422 13.8804V17.0511H66.5475C65.6024 17.0511 64.8864 17.274 64.3995 17.7198C63.927 18.1655 63.6907 18.942 63.6907 20.0493V26.0025H60.6836V14.0529H63.6907V15.9079Z" fill="white"/>
<path d="M52.3599 26.1962C51.2144 26.1962 50.1834 25.9446 49.2669 25.4413C48.3504 24.9236 47.6273 24.1974 47.0975 23.2627C46.582 22.3281 46.3242 21.2496 46.3242 20.0273C46.3242 18.805 46.5891 17.7265 47.119 16.7919C47.6631 15.8572 48.4006 15.1382 49.3313 14.6349C50.2621 14.1172 51.3003 13.8584 52.4459 13.8584C53.5914 13.8584 54.6296 14.1172 55.5604 14.6349C56.4911 15.1382 57.2214 15.8572 57.7513 16.7919C58.2954 17.7265 58.5675 18.805 58.5675 20.0273C58.5675 21.2496 58.2883 22.3281 57.7298 23.2627C57.1856 24.1974 56.441 24.9236 55.4959 25.4413C54.5652 25.9446 53.5198 26.1962 52.3599 26.1962ZM52.3599 23.5647C52.9041 23.5647 53.4124 23.4353 53.885 23.1765C54.3718 22.9033 54.7585 22.5006 55.0449 21.9686C55.3313 21.4365 55.4745 20.7894 55.4745 20.0273C55.4745 18.8913 55.1737 18.0213 54.5723 17.4174C53.9852 16.7991 53.2621 16.4899 52.4029 16.4899C51.5437 16.4899 50.8206 16.7991 50.2335 17.4174C49.6607 18.0213 49.3743 18.8913 49.3743 20.0273C49.3743 21.1633 49.6535 22.0405 50.212 22.6588C50.7848 23.2627 51.5008 23.5647 52.3599 23.5647Z" fill="white"/>
<path d="M45.9178 10.9468L45.1499 13.3841H39.6673V17.2451H44.4572V19.6393H39.6673V26.0024H36.6602V10.9468H45.9178Z" fill="white"/>
<path d="M171.958 15.7928C172.344 15.2177 172.874 14.7505 173.547 14.391C174.234 14.0316 175.015 13.8519 175.888 13.8519C176.904 13.8519 177.821 14.1035 178.637 14.6067C179.467 15.1099 180.119 15.8288 180.591 16.7633C181.078 17.6834 181.321 18.7546 181.321 19.9766C181.321 21.1987 181.078 22.2842 180.591 23.2331C180.119 24.1676 179.467 24.8937 178.637 25.4113C177.821 25.9289 176.904 26.1877 175.888 26.1877C175 26.1877 174.22 26.0151 173.547 25.6701C172.888 25.3106 172.359 24.8506 171.958 24.2898V25.9936H168.951V11.0768L171.958 10.0347V15.7928ZM178.25 19.9766C178.25 19.2578 178.1 18.6395 177.799 18.1219C177.513 17.59 177.126 17.1874 176.64 16.9142C176.167 16.6411 175.652 16.5045 175.093 16.5045C174.549 16.5045 174.034 16.6483 173.547 16.9358C173.075 17.209 172.688 17.6115 172.387 18.1435C172.101 18.6755 171.958 19.3009 171.958 20.0198C171.958 20.7386 172.101 21.364 172.387 21.896C172.688 22.428 173.075 22.8377 173.547 23.1253C174.034 23.3984 174.549 23.535 175.093 23.535C175.652 23.535 176.167 23.3913 176.64 23.1037C177.126 22.8162 177.513 22.4064 177.799 21.8744C178.1 21.3425 178.25 20.7099 178.25 19.9766Z" fill="white"/>
<path d="M124.157 15.7928C123.771 15.2177 123.241 14.7505 122.568 14.391C121.881 14.0316 121.101 13.8519 120.227 13.8519C119.211 13.8519 118.295 14.1035 117.478 14.6067C116.648 15.1099 115.997 15.8288 115.524 16.7633C115.037 17.6834 114.794 18.7546 114.794 19.9766C114.794 21.1987 115.037 22.2842 115.524 23.2331C115.997 24.1676 116.648 24.8937 117.478 25.4113C118.295 25.9289 119.211 26.1877 120.227 26.1877C121.115 26.1877 121.895 26.0151 122.568 25.6701C123.227 25.3106 123.757 24.8506 124.157 24.2898V25.9936H127.164V11.0768L124.157 10.0347V15.7928ZM117.865 19.9766C117.865 19.2578 118.015 18.6395 118.316 18.1219C118.602 17.59 118.989 17.1874 119.476 16.9142C119.948 16.6411 120.464 16.5045 121.022 16.5045C121.566 16.5045 122.081 16.6483 122.568 16.9358C123.041 17.209 123.427 17.6115 123.728 18.1435C124.014 18.6755 124.157 19.3009 124.157 20.0198C124.157 20.7386 124.014 21.364 123.728 21.896C123.427 22.428 123.041 22.8377 122.568 23.1253C122.081 23.3984 121.566 23.535 121.022 23.535C120.464 23.535 119.948 23.3913 119.476 23.1037C118.989 22.8162 118.602 22.4064 118.316 21.8744C118.015 21.3425 117.865 20.7099 117.865 19.9766Z" fill="white"/>
<path d="M166.134 19.7612C166.134 20.1925 166.105 20.5807 166.048 20.9257H157.35C157.422 21.7884 157.723 22.4641 158.252 22.9529C158.782 23.4418 159.434 23.6862 160.207 23.6862C161.323 23.6862 162.118 23.2045 162.59 22.2413H165.833C165.49 23.3914 164.831 24.3404 163.858 25.088C162.884 25.8212 161.688 26.1878 160.271 26.1878C159.126 26.1878 158.095 25.9362 157.179 25.433C156.277 24.9155 155.568 24.1894 155.052 23.2549C154.551 22.3203 154.301 21.242 154.301 20.0199C154.301 18.7835 154.551 17.698 155.052 16.7635C155.554 15.8289 156.255 15.1101 157.157 14.6069C158.059 14.1037 159.097 13.8521 160.271 13.8521C161.402 13.8521 162.412 14.0965 163.299 14.5853C164.201 15.0741 164.896 15.7714 165.382 16.6772C165.883 17.5686 166.134 18.5966 166.134 19.7612ZM163.02 18.8985C163.006 18.1221 162.726 17.5039 162.182 17.0438C161.638 16.5694 160.973 16.3321 160.185 16.3321C159.441 16.3321 158.811 16.5622 158.295 17.0223C157.794 17.468 157.486 18.0934 157.372 18.8985H163.02Z" fill="white"/>
<path d="M112.921 19.7612C112.921 20.1925 112.892 20.5807 112.835 20.9257H104.137C104.209 21.7884 104.51 22.4641 105.039 22.9529C105.569 23.4418 106.221 23.6862 106.994 23.6862C108.111 23.6862 108.905 23.2045 109.378 22.2413H112.62C112.277 23.3914 111.618 24.3404 110.645 25.088C109.671 25.8212 108.476 26.1878 107.058 26.1878C105.913 26.1878 104.882 25.9362 103.966 25.433C103.064 24.9155 102.355 24.1894 101.84 23.2549C101.338 22.3203 101.088 21.242 101.088 20.0199C101.088 18.7835 101.338 17.698 101.84 16.7635C102.341 15.8289 103.042 15.1101 103.944 14.6069C104.846 14.1037 105.884 13.8521 107.058 13.8521C108.189 13.8521 109.199 14.0965 110.086 14.5853C110.988 15.0741 111.683 15.7714 112.169 16.6772C112.671 17.5686 112.921 18.5966 112.921 19.7612ZM109.807 18.8985C109.793 18.1221 109.514 17.5039 108.97 17.0438C108.425 16.5694 107.76 16.3321 106.972 16.3321C106.228 16.3321 105.598 16.5622 105.082 17.0223C104.581 17.468 104.273 18.0934 104.159 18.8985H109.807Z" fill="white"/>
<path d="M152.488 10.9404L148.3 25.9936H144.756L141.943 15.2752L139.001 25.9936L135.479 26.0151L131.441 10.9404H134.663L137.304 22.6292L140.354 10.9404H143.704L146.582 22.5645L149.245 10.9404H152.488Z" fill="white"/>
</g>
<defs>
<filter id="filter0_d_531_317" x="-4.71505" y="1.79492" width="34.3666" height="38.5107" filterUnits="userSpaceOnUse" color-interpolation-filters="sRGB">
<feFlood flood-opacity="0" result="BackgroundImageFix"/>
<feColorMatrix in="SourceAlpha" type="matrix" values="0 0 0 0 0 0 0 0 0 0 0 0 0 0 0 0 0 0 127 0" result="hardAlpha"/>
<feOffset dy="4.76589"/>
<feGaussianBlur stdDeviation="1.90635"/>
<feComposite in2="hardAlpha" operator="out"/>
<feColorMatrix type="matrix" values="0 0 0 0 0.187712 0 0 0 0 0.0971465 0 0 0 0 0.689941 0 0 0 0.33 0"/>
<feBlend mode="normal" in2="BackgroundImageFix" result="effect1_dropShadow_531_317"/>
<feBlend mode="normal" in="SourceGraphic" in2="effect1_dropShadow_531_317" result="shape"/>
</filter>
<clipPath id="clip0_531_317">
<rect width="181" height="32" fill="white" transform="translate(0 0.834961)"/>
</clipPath>
</defs>
</svg>
