<svg width="174" height="30" viewBox="0 0 174 30" fill="none" xmlns="http://www.w3.org/2000/svg">
<mask id="mask0_531_844" style="mask-type:alpha" maskUnits="userSpaceOnUse" x="0" y="0" width="27" height="30">
<path fill-rule="evenodd" clip-rule="evenodd" d="M3.65785 7.70499H10.083L8.53769 9.25029C7.69461 10.0934 7.69461 11.4603 8.53769 12.3033C9.38076 13.1464 10.7477 13.1464 11.5907 12.3033L15.5319 8.36216L15.5332 8.36305L23.2343 0.661914C24.0583 -0.162045 25.3942 -0.162044 26.2181 0.661915C27.0421 1.48587 27.0421 2.82178 26.2181 3.64574L16.4657 13.3982C16.3351 13.5897 16.1827 13.7742 16.0076 13.9493L11.126 18.831L9.15132 20.7363C8.65504 21.5303 8.75209 22.5894 9.44247 23.2797C10.2458 24.083 11.5482 24.083 12.3515 23.2797L22.088 13.5432L22.088 13.5433L23.2343 12.397C24.0583 11.5731 25.3942 11.5731 26.2181 12.397C27.0421 13.221 27.0421 14.5569 26.2181 15.3809L22.2519 19.3471V26.2992C22.2519 28.3194 20.6143 29.957 18.5941 29.957H3.65785C1.63767 29.957 0 28.3194 0 26.2992M0 24.8744V21.8792V11.3628C0 9.34267 1.63768 7.70499 3.65785 7.70499M0 24.8744V26.2991V24.8744Z" fill="url(#paint0_linear_531_844)"/>
</mask>
<g mask="url(#mask0_531_844)">
<path fill-rule="evenodd" clip-rule="evenodd" d="M18.8583 10.9545C18.0625 10.8816 17.2261 11.0701 16.4734 11.5857L1.53713 21.816C0.541501 22.498 -0.0537109 23.6271 -0.0537109 24.8339V26.2983C-0.0537109 28.3185 1.58396 29.9562 3.60414 29.9562H18.5404C20.5605 29.9562 22.1982 28.3185 22.1982 26.2983V19.3999L26.2171 15.381C27.0411 14.557 27.0411 13.2211 26.2171 12.3972C25.4016 11.5816 24.0846 11.5733 23.2588 12.3721L12.351 23.2799C11.5477 24.0832 10.2453 24.0832 9.44199 23.2799C8.6387 22.4766 8.6387 21.1742 9.44199 20.3709L18.8583 10.9545Z" fill="url(#paint1_linear_531_844)"/>
<g filter="url(#filter0_d_531_844)">
<path fill-rule="evenodd" clip-rule="evenodd" d="M10.083 7.70499H3.65785C1.63768 7.70499 0 9.34267 0 11.3628V21.8792V26.2991C0 28.3193 1.63767 29.9569 3.65785 29.9569H3.96267C3.06395 28.3392 3.36524 26.3194 4.69696 25.0344L11.126 18.831L16.0076 13.9493C16.1827 13.7742 16.3351 13.5897 16.4657 13.3982L26.2181 3.64574C27.0421 2.82178 27.0421 1.48587 26.2181 0.661915C25.3942 -0.162044 24.0583 -0.162045 23.2343 0.661914L15.5332 8.36305C15.5328 8.36275 15.5323 8.36246 15.5319 8.36216L11.5907 12.3033C10.7477 13.1464 9.38076 13.1464 8.53769 12.3033C7.69461 11.4603 7.69461 10.0934 8.53769 9.25029L10.083 7.70499Z" fill="url(#paint2_linear_531_844)"/>
</g>
</g>
<path d="M89.5664 14.9972H87.5734V24.0171H84.6558V14.9972H83.3613V12.6343H84.6558V12.059C84.6558 10.6619 85.053 9.63453 85.8474 8.97704C86.6419 8.31956 87.8405 8.01136 89.4431 8.05245V10.4769C88.7445 10.4632 88.2582 10.5797 87.9843 10.8262C87.7103 11.0728 87.5734 11.518 87.5734 12.1617V12.6343H89.5664V14.9972Z" fill="#570DA0"/>
<path d="M78.7494 11.2788C78.2426 11.2788 77.818 11.1213 77.4755 10.8062C77.1468 10.4775 76.9824 10.0734 76.9824 9.59399C76.9824 9.11457 77.1468 8.71734 77.4755 8.40229C77.818 8.07355 78.2426 7.90918 78.7494 7.90918C79.2562 7.90918 79.674 8.07355 80.0028 8.40229C80.3452 8.71734 80.5164 9.11457 80.5164 9.59399C80.5164 10.0734 80.3452 10.4775 80.0028 10.8062C79.674 11.1213 79.2562 11.2788 78.7494 11.2788ZM80.1671 12.6349V24.0176H77.2906V12.6349H80.1671Z" fill="#570DA0"/>
<path d="M93.9662 11.2788C93.4594 11.2788 93.0348 11.1213 92.6923 10.8062C92.3636 10.4775 92.1992 10.0734 92.1992 9.59399C92.1992 9.11457 92.3636 8.71734 92.6923 8.40229C93.0348 8.07355 93.4594 7.90918 93.9662 7.90918C94.473 7.90918 94.8908 8.07355 95.2196 8.40229C95.562 8.71734 95.7332 9.11457 95.7332 9.59399C95.7332 10.0734 95.562 10.4775 95.2196 10.8062C94.8908 11.1213 94.473 11.2788 93.9662 11.2788ZM95.3839 12.6349V24.0176H92.5074V12.6349H95.3839Z" fill="#570DA0"/>
<path d="M71.6193 14.998V20.5045C71.6193 20.888 71.7084 21.1688 71.8864 21.3469C72.0782 21.5113 72.3932 21.5935 72.8316 21.5935H74.1671V24.0179H72.359C69.9345 24.0179 68.7223 22.8399 68.7223 20.484V14.998H67.3662V12.6352H68.7223V9.82034L71.6193 8.97363V12.6352H74.1671V14.998H71.6193Z" fill="#570DA0"/>
<path d="M61.7837 14.4021C62.1536 13.7994 62.633 13.3268 63.222 12.9844C63.8247 12.6419 64.5096 12.4707 65.2766 12.4707V15.491H64.5164C63.6124 15.491 62.9275 15.7033 62.4618 16.128C62.0097 16.5526 61.7837 17.2923 61.7837 18.347V24.0178H58.9072V12.6351H61.7837V14.4021Z" fill="#570DA0"/>
<path d="M50.9445 24.2028C49.8486 24.2028 48.8624 23.9631 47.9858 23.4837C47.1091 22.9905 46.4174 22.2988 45.9106 21.4085C45.4175 20.5181 45.1709 19.4908 45.1709 18.3265C45.1709 17.1622 45.4243 16.1349 45.9311 15.2445C46.4516 14.3542 47.1571 13.6693 48.0474 13.1899C48.9378 12.6968 49.9308 12.4502 51.0266 12.4502C52.1225 12.4502 53.1155 12.6968 54.0059 13.1899C54.8962 13.6693 55.5948 14.3542 56.1016 15.2445C56.6221 16.1349 56.8824 17.1622 56.8824 18.3265C56.8824 19.4908 56.6153 20.5181 56.0811 21.4085C55.5606 22.2988 54.8483 22.9905 53.9442 23.4837C53.0539 23.9631 52.054 24.2028 50.9445 24.2028ZM50.9445 21.6961C51.465 21.6961 51.9512 21.5728 52.4033 21.3263C52.869 21.066 53.2388 20.6825 53.5128 20.1757C53.7867 19.6689 53.9237 19.0525 53.9237 18.3265C53.9237 17.2444 53.636 16.4157 53.0607 15.8404C52.4991 15.2514 51.8074 14.9569 50.9855 14.9569C50.1637 14.9569 49.472 15.2514 48.9104 15.8404C48.3625 16.4157 48.0885 17.2444 48.0885 18.3265C48.0885 19.4086 48.3556 20.2442 48.8898 20.8332C49.4377 21.4085 50.1226 21.6961 50.9445 21.6961Z" fill="#570DA0"/>
<path d="M44.7833 9.67676L44.0487 11.9985H38.8042V15.6763H43.3861V17.957H38.8042V24.0182H35.9277V9.67676H44.7833Z" fill="#570DA0"/>
<path d="M165.043 14.2926C165.413 13.7448 165.92 13.2997 166.563 12.9573C167.221 12.6149 167.967 12.4437 168.802 12.4437C169.775 12.4437 170.651 12.6834 171.432 13.1628C172.226 13.6421 172.849 14.3269 173.301 15.2171C173.767 16.0936 174 17.1139 174 18.278C174 19.4421 173.767 20.4761 173.301 21.38C172.849 22.2702 172.226 22.9618 171.432 23.4549C170.651 23.9479 169.775 24.1944 168.802 24.1944C167.953 24.1944 167.207 24.0301 166.563 23.7014C165.933 23.359 165.426 22.9207 165.043 22.3866V24.0095H162.167V9.80033L165.043 8.80762V14.2926ZM171.062 18.278C171.062 17.5932 170.918 17.0043 170.631 16.5113C170.357 16.0046 169.987 15.6211 169.521 15.3609C169.069 15.1007 168.576 14.9705 168.042 14.9705C167.522 14.9705 167.029 15.1075 166.563 15.3814C166.111 15.6416 165.741 16.0251 165.454 16.5318C165.18 17.0386 165.043 17.6343 165.043 18.3191C165.043 19.0038 165.18 19.5996 165.454 20.1063C165.741 20.6131 166.111 21.0034 166.563 21.2773C167.029 21.5375 167.522 21.6676 168.042 21.6676C168.576 21.6676 169.069 21.5306 169.521 21.2567C169.987 20.9828 170.357 20.5925 170.631 20.0858C170.918 19.5791 171.062 18.9765 171.062 18.278Z" fill="#570DA0"/>
<path d="M119.625 14.2926C119.255 13.7448 118.748 13.2997 118.105 12.9573C117.447 12.6149 116.701 12.4437 115.866 12.4437C114.893 12.4437 114.017 12.6834 113.236 13.1628C112.442 13.6421 111.819 14.3269 111.367 15.2171C110.901 16.0936 110.668 17.1139 110.668 18.278C110.668 19.4421 110.901 20.4761 111.367 21.38C111.819 22.2702 112.442 22.9618 113.236 23.4549C114.017 23.9479 114.893 24.1944 115.866 24.1944C116.715 24.1944 117.461 24.0301 118.105 23.7014C118.735 23.359 119.241 22.9207 119.625 22.3866V24.0095H122.501V9.80033L119.625 8.80762V14.2926ZM113.606 18.278C113.606 17.5932 113.75 17.0043 114.037 16.5113C114.311 16.0046 114.681 15.6211 115.147 15.3609C115.598 15.1007 116.092 14.9705 116.626 14.9705C117.146 14.9705 117.639 15.1075 118.105 15.3814C118.557 15.6416 118.926 16.0251 119.214 16.5318C119.488 17.0386 119.625 17.6343 119.625 18.3191C119.625 19.0038 119.488 19.5996 119.214 20.1063C118.926 20.6131 118.557 21.0034 118.105 21.2773C117.639 21.5375 117.146 21.6676 116.626 21.6676C116.092 21.6676 115.598 21.5306 115.147 21.2567C114.681 20.9828 114.311 20.5925 114.037 20.0858C113.75 19.5791 113.606 18.9765 113.606 18.278Z" fill="#570DA0"/>
<path d="M159.473 18.0731C159.473 18.484 159.445 18.8538 159.39 19.1825H151.07C151.139 20.0042 151.427 20.6479 151.933 21.1135C152.44 21.5792 153.063 21.812 153.803 21.812C154.871 21.812 155.631 21.3532 156.083 20.4356H159.185C158.856 21.5312 158.226 22.4351 157.295 23.1473C156.364 23.8458 155.22 24.195 153.864 24.195C152.769 24.195 151.783 23.9553 150.906 23.476C150.043 22.983 149.365 22.2913 148.872 21.4011C148.393 20.5109 148.153 19.4838 148.153 18.3197C148.153 17.1419 148.393 16.1079 148.872 15.2177C149.352 14.3275 150.023 13.6427 150.886 13.1633C151.748 12.684 152.741 12.4443 153.864 12.4443C154.946 12.4443 155.912 12.6772 156.761 13.1428C157.624 13.6084 158.288 14.2727 158.754 15.1355C159.233 15.9846 159.473 16.9638 159.473 18.0731ZM156.494 17.2514C156.48 16.5119 156.213 15.923 155.693 15.4847C155.172 15.0328 154.535 14.8068 153.782 14.8068C153.07 14.8068 152.467 15.0259 151.974 15.4642C151.495 15.8887 151.201 16.4845 151.091 17.2514H156.494Z" fill="#570DA0"/>
<path d="M108.876 18.0731C108.876 18.484 108.849 18.8538 108.794 19.1825H100.474C100.542 20.0042 100.83 20.6479 101.337 21.1135C101.843 21.5792 102.466 21.812 103.206 21.812C104.274 21.812 105.034 21.3532 105.486 20.4356H108.588C108.26 21.5312 107.63 22.4351 106.698 23.1473C105.767 23.8458 104.623 24.195 103.268 24.195C102.172 24.195 101.186 23.9553 100.309 23.476C99.4466 22.983 98.7687 22.2913 98.2756 21.4011C97.7963 20.5109 97.5566 19.4838 97.5566 18.3197C97.5566 17.1419 97.7963 16.1079 98.2756 15.2177C98.755 14.3275 99.4261 13.6427 100.289 13.1633C101.152 12.684 102.145 12.4443 103.268 12.4443C104.35 12.4443 105.315 12.6772 106.164 13.1428C107.027 13.6084 107.691 14.2727 108.157 15.1355C108.636 15.9846 108.876 16.9638 108.876 18.0731ZM105.897 17.2514C105.883 16.5119 105.616 15.923 105.096 15.4847C104.576 15.0328 103.939 14.8068 103.185 14.8068C102.473 14.8068 101.871 15.0259 101.378 15.4642C100.898 15.8887 100.604 16.4845 100.494 17.2514H105.897Z" fill="#570DA0"/>
<path d="M146.419 9.6709L142.413 24.01H139.024L136.333 13.8001L133.518 24.01L130.149 24.0305L126.287 9.6709H129.369L131.895 20.8053L134.812 9.6709H138.017L140.77 20.7436L143.317 9.6709H146.419Z" fill="#570DA0"/>
<defs>
<filter id="filter0_d_531_844" x="-1.21928" y="0.0439453" width="29.2745" height="32.6565" filterUnits="userSpaceOnUse" color-interpolation-filters="sRGB">
<feFlood flood-opacity="0" result="BackgroundImageFix"/>
<feColorMatrix in="SourceAlpha" type="matrix" values="0 0 0 0 0 0 0 0 0 0 0 0 0 0 0 0 0 0 127 0" result="hardAlpha"/>
<feOffset dy="1.52411"/>
<feGaussianBlur stdDeviation="0.609642"/>
<feComposite in2="hardAlpha" operator="out"/>
<feColorMatrix type="matrix" values="0 0 0 0 0.187712 0 0 0 0 0.0971465 0 0 0 0 0.689941 0 0 0 0.6 0"/>
<feBlend mode="normal" in2="BackgroundImageFix" result="effect1_dropShadow_531_844"/>
<feBlend mode="normal" in="SourceGraphic" in2="effect1_dropShadow_531_844" result="shape"/>
</filter>
<linearGradient id="paint0_linear_531_844" x1="0" y1="15.0004" x2="26.836" y2="15.0004" gradientUnits="userSpaceOnUse">
<stop stop-color="#DA48FE"/>
<stop offset="1" stop-color="#52C7FA"/>
</linearGradient>
<linearGradient id="paint1_linear_531_844" x1="-0.000854705" y1="20.4884" x2="26.8351" y2="20.4884" gradientUnits="userSpaceOnUse">
<stop stop-color="#4646FB"/>
<stop offset="1" stop-color="#BE4DFF"/>
</linearGradient>
<linearGradient id="paint2_linear_531_844" x1="0" y1="15.0004" x2="26.836" y2="15.0004" gradientUnits="userSpaceOnUse">
<stop stop-color="#DA48FE"/>
<stop offset="1" stop-color="#52C7FA"/>
</linearGradient>
</defs>
</svg>
