<svg width="46" height="47" viewBox="0 0 46 47" fill="none" xmlns="http://www.w3.org/2000/svg">
<path fill-rule="evenodd" clip-rule="evenodd" d="M26.7216 43.6963H19.2617C19.4045 44.4435 19.7644 45.1134 20.2729 45.6356C21.7594 47.1612 24.2229 47.1612 25.7094 45.6356C26.2199 45.1134 26.5788 44.4435 26.7216 43.6963Z" fill="white"/>
<path fill-rule="evenodd" clip-rule="evenodd" d="M17.4378 26.2622H19.6695V24.0305C19.6695 22.7983 18.671 21.7988 17.4378 21.7988C16.2055 21.7988 15.2061 22.7973 15.2061 24.0305C15.2061 25.2638 16.2046 26.2622 17.4378 26.2622Z" fill="white"/>
<path fill-rule="evenodd" clip-rule="evenodd" d="M26.3311 24.0305V26.2622H28.5628C29.795 26.2622 30.7945 25.2628 30.7945 24.0305C30.7945 22.7983 29.796 21.7988 28.5628 21.7988C27.3296 21.7998 26.3311 22.7983 26.3311 24.0305Z" fill="white"/>
<path fill-rule="evenodd" clip-rule="evenodd" d="M16.2236 20.5712C16.6031 20.4382 17.0119 20.3658 17.4373 20.3658C19.4617 20.3658 21.1037 22.0069 21.1037 24.0312V26.263H24.8982V24.0312C24.8982 22.0069 26.5402 20.3658 28.5645 20.3658C28.99 20.3658 29.3987 20.4382 29.7782 20.5722C29.4085 17.1161 26.4815 14.4893 23.0009 14.4893C19.5203 14.4893 16.5933 17.1161 16.2236 20.5712Z" fill="white"/>
<path d="M24.897 27.6953H21.1025V39.0651H24.897V27.6953Z" fill="white"/>
<path fill-rule="evenodd" clip-rule="evenodd" d="M28.3082 40.5H17.6689V40.7719C17.6689 41.5934 18.3369 42.2623 19.1594 42.2623H26.8178C27.6393 42.2623 28.3082 41.5943 28.3082 40.7719V40.5Z" fill="white"/>
<path fill-rule="evenodd" clip-rule="evenodd" d="M17.6705 39.0658H19.6675V27.696H17.4358C15.4114 27.696 13.7694 26.054 13.7694 24.0296C13.7694 23.0644 14.143 22.1852 14.7532 21.5309L14.7474 21.3031C14.7474 16.7467 18.4421 13.053 22.9984 13.053C27.5548 13.053 31.2495 16.7467 31.2495 21.3031L31.2437 21.5309C31.8539 22.1852 32.2275 23.0644 32.2275 24.0296C32.2275 26.054 30.5855 27.696 28.5621 27.696H26.3304V39.0658H28.3098V37.7583C28.3098 35.0464 29.7865 33.5364 31.45 31.8347C33.3629 29.8788 35.5535 27.6383 35.5535 22.7162C35.5535 15.7815 29.9322 10.1602 22.9975 10.1602C16.0627 10.1602 10.4414 15.7815 10.4414 22.7162C10.4414 27.6315 12.6223 29.8642 14.5293 31.8162C16.1918 33.5188 17.6695 35.0317 17.6695 37.7573V39.0658H17.6705Z" fill="white"/>
<path fill-rule="evenodd" clip-rule="evenodd" d="M33.6255 9.23928C33.1542 10.052 31.9161 9.33512 32.3874 8.52243L34.6866 4.54017C35.158 3.72748 36.3961 4.44433 35.9247 5.25701L33.6255 9.23928Z" fill="white"/>
<path fill-rule="evenodd" clip-rule="evenodd" d="M39.5291 16.8261C38.7155 17.2975 37.9986 16.0594 38.8123 15.588L42.7945 13.2888C43.6082 12.8174 44.3251 14.0555 43.5114 14.5269L39.5291 16.8261Z" fill="white"/>
<path fill-rule="evenodd" clip-rule="evenodd" d="M40.6941 26.9298C39.7504 26.9298 39.7504 25.4951 40.6941 25.4951H45.2925C46.2362 25.4951 46.2362 26.9298 45.2925 26.9298H40.6941Z" fill="white"/>
<path fill-rule="evenodd" clip-rule="evenodd" d="M22.2812 6.19803V1.60063C22.2812 0.653958 23.7159 0.653958 23.7159 1.60063V6.19901C23.7169 7.15154 22.2812 7.15154 22.2812 6.19803Z" fill="white"/>
<path fill-rule="evenodd" clip-rule="evenodd" d="M13.6122 8.52013C14.0836 9.33379 12.8455 10.0506 12.3741 9.23698L10.0749 5.25471C9.60355 4.44105 10.8417 3.7242 11.313 4.53786L13.6122 8.52013Z" fill="white"/>
<path fill-rule="evenodd" clip-rule="evenodd" d="M7.18752 15.588C8.11952 16.1278 7.72736 17.5547 6.47067 16.8261L2.48841 14.5269C1.67572 14.0555 2.39257 12.8174 3.20526 13.2888L7.18752 15.588Z" fill="white"/>
<path fill-rule="evenodd" clip-rule="evenodd" d="M5.30618 25.4951C6.24992 25.4951 6.24992 26.9298 5.30618 26.9298H0.707801C-0.235934 26.9298 -0.235934 25.4951 0.707801 25.4951H5.30618Z" fill="white"/>
</svg>
