<svg width="32" height="33" viewBox="0 0 32 33" fill="none" xmlns="http://www.w3.org/2000/svg">
<rect y="0.834961" width="32" height="32" rx="16" fill="#007EBB"/>
<path fill-rule="evenodd" clip-rule="evenodd" d="M13.9432 14.4102H16.9144V15.8902C17.3424 15.039 18.44 14.2742 20.0888 14.2742C23.2496 14.2742 24 15.9686 24 19.0774V24.835H20.8V19.7854C20.8 18.015 20.372 17.0166 19.2824 17.0166C17.7712 17.0166 17.1432 18.0926 17.1432 19.7846V24.835H13.9432V14.4102ZM8.456 24.699H11.656V14.2742H8.456V24.699ZM12.1144 10.875C12.1145 11.1432 12.0613 11.4087 11.9579 11.6562C11.8545 11.9037 11.7029 12.1282 11.512 12.3166C11.1251 12.7011 10.6014 12.9163 10.056 12.915C9.51151 12.9146 8.98905 12.6999 8.6016 12.3174C8.41137 12.1283 8.26031 11.9036 8.15707 11.6561C8.05384 11.4086 8.00046 11.1431 8 10.875C8 10.3334 8.216 9.81496 8.6024 9.43256C8.98951 9.04949 9.51219 8.83472 10.0568 8.83496C10.6024 8.83496 11.1256 9.05016 11.512 9.43256C11.8976 9.81496 12.1144 10.3334 12.1144 10.875Z" fill="white"/>
</svg>
