<svg width="21" height="22" viewBox="0 0 21 22" fill="none" xmlns="http://www.w3.org/2000/svg">
<path d="M10.3188 2.38833C10.3906 2.23444 10.6094 2.23444 10.6812 2.38833L13.333 8.07032C13.3529 8.11289 13.3871 8.14711 13.4297 8.16697L19.1117 10.8188C19.2656 10.8906 19.2656 11.1094 19.1117 11.1812L13.4297 13.833C13.3871 13.8529 13.3529 13.8871 13.333 13.9297L10.6812 19.6117C10.6094 19.7656 10.3906 19.7656 10.3188 19.6117L7.66697 13.9297C7.64711 13.8871 7.61289 13.8529 7.57032 13.833L1.88833 11.1812C1.73444 11.1094 1.73444 10.8906 1.88833 10.8188L7.57032 8.16697C7.61289 8.14711 7.64711 8.11289 7.66697 8.07032L10.3188 2.38833Z" fill="url(#paint0_linear_250_13887)"/>
<defs>
<linearGradient id="paint0_linear_250_13887" x1="1.53538" y1="11.0384" x2="19.5" y2="11.0384" gradientUnits="userSpaceOnUse">
<stop stop-color="#4646FB"/>
<stop offset="1" stop-color="#BE4DFF"/>
</linearGradient>
</defs>
</svg>
