<svg width="46" height="47" viewBox="0 0 46 47" fill="none" xmlns="http://www.w3.org/2000/svg">
<path d="M42.1381 37.8516C41.0128 39.4318 39.738 40.9329 38.3554 42.2792C38.1643 42.464 37.8525 42.4362 37.6988 42.2066C37.3657 41.7219 37.0144 41.2895 36.6397 40.8988C36.3888 41.1828 36.1218 41.4828 35.8346 41.8063C35.4471 42.2814 35.7834 42.7597 36.2008 43.065C37.9347 44.1519 39.3547 45.4716 40.8559 46.8328C41.4879 45.495 41.8701 44.1028 41.9299 42.6198C41.9363 42.496 41.9961 42.3743 42.1029 42.2931C43.1983 41.4849 44.4485 40.9222 45.7319 40.4834C44.6055 39.5161 43.4364 38.63 42.1381 37.8516ZM9.35553 40.8998C8.98291 41.2874 8.62952 41.723 8.2964 42.2077C8.14159 42.4373 7.82984 42.465 7.643 42.2803C6.26037 40.934 4.98238 39.4328 3.85706 37.8559C2.56199 38.631 1.39076 39.5172 0.267578 40.4856C1.54771 40.9244 2.80114 41.487 3.89336 42.2953C4.00226 42.3775 4.06312 42.4981 4.06632 42.622C4.13038 44.1049 4.51154 45.4972 5.14039 46.835C6.64473 45.4726 8.06365 44.1541 9.79861 43.0672C10.2161 42.7618 10.5492 42.2835 10.1648 41.8084C9.87655 41.4838 9.6107 41.1838 9.35553 40.8998ZM9.8221 39.3261C7.7914 37.6435 6.09061 35.585 4.82543 33.2586C4.19551 33.7614 3.59335 34.3476 3.02428 35.0287C4.39516 37.3167 6.02015 39.4382 7.88429 41.3205C8.47791 40.5336 9.12598 39.8706 9.8221 39.3261ZM36.1731 39.3261C36.8724 39.8706 37.5194 40.5336 38.1098 41.3205C39.9772 39.4382 41.599 37.3167 42.973 35.0287C42.4008 34.3476 41.8018 33.7604 41.1719 33.2586C39.9046 35.585 38.2038 37.6467 36.1731 39.3261ZM28.692 30.1709C25.5595 27.8615 20.4389 27.8615 17.3064 30.1709C14.2593 32.4194 14.2593 36.0003 17.3064 38.2488C20.4389 40.5582 25.5595 40.5582 28.692 38.2488C31.7391 36.0003 31.7391 32.4194 28.692 30.1709ZM30.5593 37.6402C28.8767 39.7254 25.9406 40.8336 22.9992 40.8336C20.5841 40.8336 18.3933 40.1108 16.8035 38.9364C16.2804 38.5488 15.8202 38.1164 15.4359 37.6413C14.0169 36.8875 12.724 35.9256 11.5955 34.7992C4.54677 27.7505 5.52796 16.0895 13.5995 10.291L12.4315 9.27991C11.4022 8.39588 11.9467 6.75916 13.324 6.61395L18.8748 6.02994C19.1289 6.00218 19.3595 5.88154 19.4652 5.63918L20.2852 3.76009C10.5609 5.0904 3.1791 13.4288 3.1791 23.3944C3.1791 34.3412 12.0524 43.2145 22.9992 43.2145C33.9459 43.2145 42.8193 34.3412 42.8193 23.3944C42.8193 13.4288 35.4343 5.0904 25.7111 3.75902L26.5342 5.63811C26.6367 5.87727 26.8673 6.00112 27.1246 6.02888L32.6722 6.61289C34.0495 6.75809 34.594 8.39588 33.568 9.27884L32.3968 10.2899C40.4683 16.0884 41.4484 27.7494 34.4029 34.7981C33.2744 35.9245 31.9782 36.8865 30.5593 37.6402ZM26.2129 18.2344C24.4363 16.461 21.5578 16.461 19.7845 18.2344C18.0079 20.011 18.0079 22.8894 19.7845 24.6628C21.5578 26.4394 24.4363 26.4394 26.2129 24.6628C27.9895 22.8894 27.9895 20.011 26.2129 18.2344ZM22.9992 16.05C24.4907 16.05 25.8413 16.6553 26.8182 17.6333C27.2602 18.0753 27.6264 18.5931 27.8923 19.1675L28.519 19.4878C29.0731 19.7697 29.7415 19.3362 29.6144 18.7586L28.4859 13.5687C28.3653 13.0146 28.5521 12.4818 28.9824 12.1135L33.0107 8.63931C33.4772 8.2368 33.2135 7.52894 32.5868 7.46168L27.036 6.87767C26.4766 6.82001 25.9801 6.50185 25.7527 5.9787L23.6761 1.22973C23.4433 0.703371 22.5508 0.703371 22.3202 1.22973L20.2446 5.97763C20.0151 6.50399 19.5186 6.81895 18.9581 6.8766L13.4105 7.46061C12.7806 7.52681 12.5211 8.23573 12.9866 8.63824L17.0149 12.1124C17.4452 12.4818 17.6321 13.0146 17.5114 13.5676L16.3797 18.7576C16.2558 19.3352 16.9242 19.7686 17.4751 19.4868L18.1018 19.1665C18.3709 18.591 18.7371 18.0743 19.1791 17.6322C20.1571 16.6553 21.5066 16.05 22.9992 16.05Z" fill="white"/>
</svg>
