<svg width="462" height="311" viewBox="0 0 462 311" fill="none" xmlns="http://www.w3.org/2000/svg">
<g filter="url(#filter0_d_319_861)">
<g clip-path="url(#clip0_319_861)">
<path d="M295.265 144.324H360.099M403.445 144.324H360.099M360.099 144.324V113.556C360.099 106.2 354.135 100.237 346.78 100.237H334.906" stroke="#8F00FF" stroke-width="1.33189" stroke-dasharray="1.33 1.33"/>
<path d="M295.265 202.861H328.423M361.58 229.165V216.179C361.58 208.824 355.617 202.861 348.262 202.861H328.423M328.423 202.861V144.695" stroke="#8F00FF" stroke-width="1.33189" stroke-dasharray="1.33 1.33"/>
<path d="M111.381 148.029H191.901" stroke="#8F00FF" stroke-width="1.33189" stroke-dasharray="1.33 1.33"/>
<path d="M188.937 196.191L137.009 196.191M137.009 196.191L85.9254 196.191C78.5695 196.191 72.6064 202.154 72.6064 209.51L72.6064 228.052V228.052C72.6064 230.916 74.9286 233.239 77.7932 233.239H191.53L302.304 244.353H360.469M137.009 196.191V148.77" stroke="#8F00FF" stroke-width="1.33189" stroke-dasharray="1.33 1.33"/>
<path d="M107.062 62.0771V85.8062C107.062 93.162 113.025 99.1251 120.38 99.1251H137.441M264.145 99.1251H137.441M137.441 99.1251V148.399" stroke="#8F00FF" stroke-width="1.33189" stroke-dasharray="1.33 1.33"/>
<path d="M276.74 100.238H332.701C340.057 100.238 346.02 94.2745 346.02 86.9187V65.042" stroke="#8F00FF" stroke-width="1.33189" stroke-dasharray="1.33 1.33"/>
<g filter="url(#filter1_d_319_861)">
<rect x="158.814" y="40.7168" width="149.186" height="236.402" rx="13.9933" fill="white"/>
<rect x="159.148" y="41.05" width="148.519" height="235.736" rx="13.6601" stroke="black" stroke-opacity="0.08" stroke-width="0.666348"/>
</g>
<g clip-path="url(#clip1_319_861)">
<path d="M167.381 74.1407C167.381 69.7245 170.961 66.1445 175.377 66.1445H291.739C296.155 66.1445 299.735 69.7245 299.735 74.1407V261.653C299.735 266.069 296.155 269.649 291.739 269.649H175.377C170.961 269.649 167.381 266.069 167.381 261.653V74.1407Z" fill="#8F00FF" fill-opacity="0.02"/>
<path d="M167.714 74.1407C167.714 69.9086 171.145 66.4777 175.377 66.4777H291.739C295.971 66.4777 299.402 69.9085 299.402 74.1407V261.653C299.402 265.885 295.971 269.316 291.739 269.316H175.377C171.145 269.316 167.714 265.885 167.714 261.653V74.1407Z" stroke="black" stroke-opacity="0.08" stroke-width="0.666348"/>
<g clip-path="url(#clip2_319_861)">
<rect x="173.157" y="130.427" width="18.524" height="18.524" rx="9.26198" fill="#F478F7"/>
<path d="M182.42 134.873C183.451 134.873 184.441 135.244 185.17 135.904C185.9 136.564 186.31 137.459 186.31 138.393C186.31 139.326 185.9 140.221 185.17 140.881C184.441 141.541 183.451 141.912 182.42 141.912C181.388 141.912 180.399 141.541 179.669 140.881C178.94 140.221 178.53 139.326 178.53 138.393C178.53 137.459 178.94 136.564 179.669 135.904C180.399 135.244 181.388 134.873 182.42 134.873ZM182.42 143.672C186.718 143.672 190.2 145.247 190.2 147.191V148.951H174.64V147.191C174.64 145.247 178.121 143.672 182.42 143.672Z" fill="white"/>
</g>
<g clip-path="url(#clip3_319_861)">
<rect x="196.868" y="130.427" width="18.524" height="18.524" rx="9.26198" fill="#FF6A55"/>
</g>
<g clip-path="url(#clip4_319_861)">
<rect x="220.578" y="130.427" width="18.524" height="18.524" rx="9.26198" fill="#6DE486"/>
<rect x="220.578" y="130.427" width="18.524" height="18.524" rx="9.26198" fill="#6DE486"/>
</g>
<g clip-path="url(#clip5_319_861)">
<rect x="244.289" y="130.427" width="18.524" height="18.524" rx="9.26198" fill="#FF8D78"/>
</g>
<g clip-path="url(#clip6_319_861)">
<rect x="268" y="130.427" width="18.524" height="18.524" rx="9.26198" fill="#FCEC73"/>
</g>
<g clip-path="url(#clip7_319_861)">
<rect x="291.711" y="130.427" width="18.524" height="18.524" rx="9.26198" fill="#8F00FF"/>
</g>
<g opacity="0.4">
<rect x="173.119" y="154.878" width="58.5357" height="80.7645" fill="#54C6FB" fill-opacity="0.7"/>
<rect x="234.619" y="154.878" width="58.5357" height="38.9003" fill="#54C6FB" fill-opacity="0.7"/>
<rect x="234.619" y="196.742" width="58.5357" height="38.9003" fill="#54C6FB" fill-opacity="0.7"/>
<rect x="173.119" y="243.052" width="120.114" height="27.542" fill="#54C6FB" fill-opacity="0.7"/>
</g>
<rect x="167.97" y="106.716" width="131.15" height="1.48192" fill="#E3E0E7"/>
<rect x="173.528" y="114.496" width="106.698" height="9.63246" rx="4.81623" stroke="#D9D9D9" stroke-width="0.740959"/>
<g clip-path="url(#clip8_319_861)">
<path fill-rule="evenodd" clip-rule="evenodd" d="M179.457 116.844C179.122 116.844 178.792 116.924 178.494 117.077C178.197 117.231 177.94 117.453 177.746 117.726C177.552 117.999 177.426 118.314 177.379 118.645C177.331 118.977 177.364 119.315 177.473 119.631C177.583 119.947 177.767 120.233 178.009 120.464C178.252 120.694 178.546 120.864 178.867 120.958C179.188 121.052 179.527 121.068 179.856 121.004C180.185 120.941 180.493 120.799 180.756 120.592L181.658 121.494C181.705 121.539 181.767 121.564 181.832 121.563C181.897 121.563 181.959 121.537 182.004 121.491C182.05 121.445 182.076 121.383 182.077 121.318C182.077 121.254 182.052 121.191 182.007 121.145L181.106 120.243C181.35 119.933 181.501 119.561 181.544 119.169C181.586 118.777 181.518 118.381 181.346 118.027C181.174 117.672 180.905 117.373 180.571 117.164C180.237 116.955 179.851 116.844 179.457 116.844ZM177.851 118.943C177.851 118.517 178.02 118.109 178.321 117.808C178.623 117.507 179.031 117.338 179.457 117.338C179.882 117.338 180.291 117.507 180.592 117.808C180.893 118.109 181.062 118.517 181.062 118.943C181.062 119.369 180.893 119.777 180.592 120.078C180.291 120.379 179.882 120.549 179.457 120.549C179.031 120.549 178.623 120.379 178.321 120.078C178.02 119.777 177.851 119.369 177.851 118.943Z" fill="#D9D9D9"/>
</g>
<path d="M289.116 118.572C289.336 118.572 289.551 118.506 289.734 118.384C289.917 118.262 290.059 118.088 290.143 117.885C290.227 117.682 290.249 117.459 290.206 117.243C290.164 117.028 290.058 116.83 289.902 116.674C289.747 116.519 289.549 116.413 289.333 116.37C289.118 116.327 288.894 116.349 288.691 116.433C288.488 116.517 288.314 116.66 288.192 116.843C288.07 117.025 288.005 117.24 288.005 117.46C288.005 117.755 288.122 118.038 288.33 118.246C288.539 118.454 288.822 118.572 289.116 118.572ZM289.116 117.09C289.19 117.09 289.261 117.111 289.322 117.152C289.383 117.193 289.431 117.251 289.459 117.318C289.487 117.386 289.494 117.46 289.48 117.532C289.465 117.604 289.43 117.67 289.378 117.722C289.326 117.774 289.26 117.809 289.189 117.823C289.117 117.838 289.042 117.83 288.975 117.802C288.907 117.774 288.849 117.727 288.808 117.666C288.768 117.605 288.746 117.533 288.746 117.46C288.746 117.362 288.785 117.268 288.854 117.198C288.924 117.129 289.018 117.09 289.116 117.09Z" fill="#C5C4C4"/>
<path d="M291.711 114.867H284.302C284.105 114.867 283.917 114.945 283.778 115.084C283.639 115.223 283.561 115.412 283.561 115.608V123.018C283.561 123.214 283.639 123.403 283.778 123.542C283.917 123.681 284.105 123.759 284.302 123.759H291.711C291.908 123.759 292.096 123.681 292.235 123.542C292.374 123.403 292.452 123.214 292.452 123.018V115.608C292.452 115.412 292.374 115.223 292.235 115.084C292.096 114.945 291.908 114.867 291.711 114.867ZM291.711 123.018H284.302V120.795L286.154 118.942L288.225 121.013C288.364 121.151 288.552 121.229 288.747 121.229C288.943 121.229 289.131 121.151 289.27 121.013L289.859 120.424L291.711 122.277V123.018ZM291.711 121.228L290.381 119.898C290.242 119.76 290.054 119.683 289.859 119.683C289.663 119.683 289.475 119.76 289.336 119.898L288.747 120.487L286.676 118.416C286.537 118.278 286.35 118.201 286.154 118.201C285.958 118.201 285.77 118.278 285.632 118.416L284.302 119.746V115.608H291.711V121.228Z" fill="#C5C4C4"/>
</g>
<rect x="207.091" y="50.2119" width="41.4937" height="5.92767" rx="2.96383" fill="#D2D3D5"/>
<circle cx="256.029" cy="53.2105" r="2.99857" fill="#D2D3D5"/>
<rect x="205.608" y="78.3789" width="16.3011" height="5.92767" rx="2.96383" fill="#F4E6FF"/>
<rect x="236.729" y="78.3789" width="16.3011" height="5.92767" rx="2.96383" fill="#F4E6FF"/>
<rect x="267.108" y="78.3789" width="16.3011" height="5.92767" rx="2.96383" fill="#F4E6FF"/>
<rect x="205.608" y="88.0117" width="26.6745" height="5.92767" rx="2.96383" fill="#F4E6FF"/>
<rect x="236.729" y="88.0117" width="25.9335" height="5.92767" rx="2.96383" fill="#F4E6FF"/>
<rect x="267.108" y="88.0117" width="26.6745" height="5.92767" rx="2.96383" fill="#F4E6FF"/>
<g clip-path="url(#clip9_319_861)">
<rect x="175.971" y="74.6748" width="23.7107" height="23.7107" rx="11.8553" fill="#8F00FF"/>
<path d="M187.826 80.3652C189.146 80.3652 190.413 80.8399 191.347 81.6847C192.28 82.5296 192.805 83.6755 192.805 84.8703C192.805 86.0651 192.28 87.2109 191.347 88.0558C190.413 88.9007 189.146 89.3753 187.826 89.3753C186.505 89.3753 185.239 88.9007 184.305 88.0558C183.371 87.2109 182.846 86.0651 182.846 84.8703C182.846 83.6755 183.371 82.5296 184.305 81.6847C185.239 80.8399 186.505 80.3652 187.826 80.3652ZM187.826 91.6278C193.328 91.6278 197.784 93.6438 197.784 96.1328V98.3853H177.867V96.1328C177.867 93.6438 182.324 91.6278 187.826 91.6278Z" fill="white"/>
</g>
<g filter="url(#filter2_d_319_861)">
<rect x="338.24" y="222.866" width="44.4575" height="44.4575" rx="12.1248" fill="url(#paint0_linear_319_861)" shape-rendering="crispEdges"/>
<rect x="333.188" y="217.814" width="54.5615" height="54.5615" rx="17.1768" stroke="black" stroke-opacity="0.05" stroke-width="10.104" shape-rendering="crispEdges"/>
<path d="M355.467 236.203C352.091 236.203 349.354 238.94 349.354 242.316C349.354 248.429 356.579 253.986 360.469 255.279C364.359 253.986 371.583 248.429 371.583 242.316C371.583 238.94 368.846 236.203 365.47 236.203C363.403 236.203 361.575 237.23 360.469 238.801C359.905 237.998 359.156 237.342 358.286 236.89C357.415 236.438 356.448 236.202 355.467 236.203Z" fill="white" stroke="white" stroke-width="2.22288" stroke-linecap="round" stroke-linejoin="round"/>
</g>
<g filter="url(#filter3_d_319_861)">
<rect x="386.402" y="127.333" width="34.825" height="34.825" rx="9.49774" fill="url(#paint1_linear_319_861)" shape-rendering="crispEdges"/>
<rect x="382.445" y="123.376" width="42.7398" height="42.7398" rx="13.4551" stroke="black" stroke-opacity="0.05" stroke-width="7.91478" shape-rendering="crispEdges"/>
<path fill-rule="evenodd" clip-rule="evenodd" d="M396.529 137.286C396.299 137.286 396.079 137.377 395.917 137.539C395.755 137.701 395.664 137.921 395.664 138.151V145.066C395.664 145.295 395.755 145.515 395.917 145.677C396.079 145.84 396.299 145.931 396.529 145.931H397.393V147.66C397.393 147.83 397.444 147.998 397.539 148.14C397.634 148.282 397.769 148.393 397.927 148.458C398.085 148.523 398.258 148.541 398.426 148.507C398.594 148.474 398.748 148.392 398.869 148.271L401.209 145.931H406.037C406.267 145.931 406.487 145.84 406.649 145.677C406.811 145.515 406.902 145.295 406.902 145.066V138.151C406.902 137.921 406.811 137.701 406.649 137.539C406.487 137.377 406.267 137.286 406.037 137.286H396.529Z" fill="white"/>
<path fill-rule="evenodd" clip-rule="evenodd" d="M400.007 149.574C400.035 149.548 400.064 149.521 400.092 149.493L401.926 147.66H406.038C406.726 147.66 407.386 147.386 407.872 146.9C408.358 146.414 408.631 145.754 408.631 145.066V141.608H410.36C410.59 141.608 410.81 141.699 410.972 141.862C411.134 142.024 411.225 142.244 411.225 142.473V149.388C411.225 149.618 411.134 149.838 410.972 150C410.81 150.162 410.59 150.253 410.36 150.253H409.496V151.982C409.496 152.153 409.445 152.32 409.35 152.462C409.255 152.604 409.12 152.715 408.962 152.78C408.804 152.846 408.631 152.863 408.463 152.829C408.295 152.796 408.141 152.714 408.02 152.593L405.68 150.253H400.851C400.654 150.253 400.463 150.186 400.31 150.062C400.156 149.939 400.049 149.767 400.007 149.574Z" fill="white"/>
</g>
<g filter="url(#filter4_d_319_861)">
<rect x="324.162" y="42.8643" width="43.7165" height="43.7165" rx="11.9227" fill="url(#paint2_linear_319_861)" shape-rendering="crispEdges"/>
<rect x="319.194" y="37.8965" width="53.6521" height="53.6521" rx="16.8905" stroke="black" stroke-opacity="0.05" stroke-width="9.93558" shape-rendering="crispEdges"/>
<path d="M345.774 53.8232C351.627 53.8232 356.372 58.5679 356.372 64.4212C356.372 70.2744 351.627 75.0191 345.774 75.0191C339.92 75.0191 335.176 70.2744 335.176 64.4212C335.176 58.5679 339.92 53.8232 345.774 53.8232ZM345.774 55.9428C343.525 55.9428 341.369 56.8361 339.779 58.4261C338.189 60.0161 337.295 62.1726 337.295 64.4212C337.295 66.6698 338.189 68.8263 339.779 70.4163C341.369 72.0063 343.525 72.8996 345.774 72.8996C348.022 72.8996 350.179 72.0063 351.769 70.4163C353.359 68.8263 354.252 66.6698 354.252 64.4212C354.252 62.1726 353.359 60.0161 351.769 58.4261C350.179 56.8361 348.022 55.9428 345.774 55.9428ZM346.304 65.481C346.574 65.4813 346.834 65.5847 347.03 65.7702C347.226 65.9556 347.345 66.209 347.36 66.4787C347.376 66.7483 347.289 67.0139 347.115 67.221C346.942 67.4281 346.696 67.5613 346.428 67.5932L346.304 67.6006H342.707L341.824 69.1786C341.693 69.4167 341.476 69.5954 341.217 69.6778C340.958 69.7602 340.677 69.74 340.433 69.6214C340.188 69.5028 339.999 69.2948 339.903 69.0404C339.808 68.786 339.813 68.5047 339.919 68.2545L339.975 68.1421L340.278 67.6016H339.733C339.461 67.6038 339.199 67.5014 339 67.3158C338.802 67.1301 338.682 66.8753 338.667 66.604C338.651 66.3326 338.74 66.0656 338.915 65.858C339.09 65.6504 339.339 65.5181 339.609 65.4884L339.733 65.481H346.304ZM348.31 62.3143L350.083 65.481H351.815C352.096 65.481 352.365 65.5926 352.564 65.7914C352.763 65.9901 352.874 66.2597 352.874 66.5408C352.874 66.8219 352.763 67.0914 352.564 67.2902C352.365 67.4889 352.096 67.6006 351.815 67.6006H351.27L351.574 68.1432C351.708 68.3882 351.74 68.6761 351.662 68.9443C351.585 69.2125 351.405 69.4395 351.162 69.5759C350.918 69.7122 350.631 69.747 350.361 69.6726C350.092 69.5982 349.864 69.4207 349.725 69.1786L346.46 63.3497C346.327 63.1048 346.295 62.8169 346.372 62.5486C346.449 62.2804 346.629 62.0534 346.873 61.9171C347.116 61.7807 347.404 61.7459 347.673 61.8203C347.942 61.8947 348.171 62.0722 348.31 62.3143ZM345.639 57.5452L345.774 57.7858L345.908 57.5452C346.046 57.2999 346.275 57.1191 346.545 57.0427C346.816 56.9662 347.106 57.0004 347.351 57.1378C347.597 57.2751 347.777 57.5042 347.854 57.7748C347.93 58.0454 347.896 58.3353 347.759 58.5807L344.495 64.4095C344.356 64.6516 344.127 64.8292 343.858 64.9035C343.589 64.9779 343.301 64.9431 343.058 64.8068C342.814 64.6704 342.634 64.4435 342.557 64.1752C342.48 63.907 342.511 63.6191 342.645 63.3741L344.559 59.9552L343.79 58.5807C343.72 58.4591 343.675 58.325 343.658 58.186C343.64 58.047 343.65 57.9058 343.688 57.7708C343.725 57.6357 343.789 57.5094 343.875 57.3992C343.962 57.2889 344.069 57.1969 344.191 57.1285C344.314 57.06 344.448 57.0165 344.587 57.0004C344.727 56.9843 344.868 56.996 345.002 57.0347C345.137 57.0735 345.262 57.1386 345.372 57.2262C345.481 57.3138 345.572 57.4223 345.639 57.5452Z" fill="white"/>
</g>
<g filter="url(#filter5_d_319_861)">
<rect x="93.7236" y="50.2217" width="27.4155" height="27.4155" rx="7.47694" fill="url(#paint3_linear_319_861)" shape-rendering="crispEdges"/>
<rect x="90.6082" y="47.1063" width="33.6462" height="33.6462" rx="10.5923" stroke="black" stroke-opacity="0.05" stroke-width="6.23079" shape-rendering="crispEdges"/>
<path d="M113.081 57.0761H111.274V56.4741C111.274 56.3144 111.211 56.1613 111.098 56.0484C110.985 55.9355 110.832 55.8721 110.672 55.8721C110.513 55.8721 110.36 55.9355 110.247 56.0484C110.134 56.1613 110.07 56.3144 110.07 56.4741V57.0761H104.05V56.4741C104.05 56.3144 103.987 56.1613 103.874 56.0484C103.761 55.9355 103.608 55.8721 103.448 55.8721C103.288 55.8721 103.135 55.9355 103.022 56.0484C102.91 56.1613 102.846 56.3144 102.846 56.4741V57.0761H101.04C100.721 57.0761 100.414 57.203 100.189 57.4288C99.9628 57.6546 99.8359 57.9608 99.8359 58.2802V70.3208C99.8359 70.6401 99.9628 70.9464 100.189 71.1722C100.414 71.398 100.721 71.5248 101.04 71.5248H113.081C113.4 71.5248 113.706 71.398 113.932 71.1722C114.158 70.9464 114.285 70.6401 114.285 70.3208V58.2802C114.285 57.9608 114.158 57.6546 113.932 57.4288C113.706 57.203 113.4 57.0761 113.081 57.0761ZM105.856 68.5147C105.856 68.6743 105.793 68.8275 105.68 68.9404C105.567 69.0533 105.414 69.1167 105.254 69.1167C105.095 69.1167 104.941 69.0533 104.828 68.9404C104.716 68.8275 104.652 68.6743 104.652 68.5147V64.6722L104.32 64.8393C104.177 64.9107 104.011 64.9225 103.86 64.872C103.708 64.8215 103.583 64.7128 103.511 64.5699C103.44 64.427 103.428 64.2615 103.479 64.11C103.529 63.9584 103.638 63.8331 103.781 63.7617L104.985 63.1596C105.077 63.1137 105.179 63.092 105.281 63.0966C105.384 63.1012 105.483 63.132 105.571 63.186C105.658 63.24 105.73 63.3154 105.78 63.4051C105.83 63.4948 105.856 63.5958 105.856 63.6984V68.5147ZM110.07 67.9126C110.23 67.9126 110.383 67.9761 110.496 68.089C110.609 68.2019 110.672 68.355 110.672 68.5147C110.672 68.6743 110.609 68.8275 110.496 68.9404C110.383 69.0533 110.23 69.1167 110.07 69.1167H107.662C107.551 69.1167 107.441 69.0856 107.346 69.0268C107.251 68.968 107.174 68.8839 107.124 68.7839C107.074 68.6839 107.053 68.572 107.063 68.4606C107.073 68.3493 107.114 68.2429 107.181 68.1535L109.346 65.266C109.396 65.2004 109.431 65.1254 109.45 65.0457C109.47 64.966 109.472 64.8831 109.458 64.8023C109.445 64.7215 109.414 64.6443 109.369 64.5756C109.325 64.5069 109.266 64.4481 109.198 64.4027C109.13 64.3574 109.053 64.3265 108.972 64.3119C108.891 64.2974 108.808 64.2995 108.729 64.3181C108.649 64.3367 108.573 64.3714 108.507 64.4202C108.441 64.4689 108.386 64.5306 108.345 64.6015C108.306 64.6721 108.254 64.7344 108.192 64.7846C108.129 64.8347 108.057 64.8718 107.979 64.8936C107.902 64.9155 107.821 64.9216 107.741 64.9116C107.661 64.9016 107.584 64.8757 107.515 64.8355C107.445 64.7953 107.384 64.7416 107.336 64.6774C107.287 64.6133 107.252 64.5402 107.232 64.4622C107.212 64.3843 107.209 64.3032 107.221 64.2237C107.233 64.1442 107.261 64.068 107.303 63.9995C107.501 63.6553 107.808 63.3864 108.176 63.2344C108.543 63.0823 108.95 63.0557 109.334 63.1586C109.718 63.2615 110.057 63.4881 110.299 63.8034C110.541 64.1187 110.672 64.505 110.672 64.9025C110.674 65.2951 110.546 65.6773 110.308 65.9899L108.866 67.9126H110.07ZM101.04 60.6883V58.2802H102.846V58.8822C102.846 59.0419 102.91 59.195 103.022 59.3079C103.135 59.4208 103.288 59.4842 103.448 59.4842C103.608 59.4842 103.761 59.4208 103.874 59.3079C103.987 59.195 104.05 59.0419 104.05 58.8822V58.2802H110.07V58.8822C110.07 59.0419 110.134 59.195 110.247 59.3079C110.36 59.4208 110.513 59.4842 110.672 59.4842C110.832 59.4842 110.985 59.4208 111.098 59.3079C111.211 59.195 111.274 59.0419 111.274 58.8822V58.2802H113.081V60.6883H101.04Z" fill="white"/>
</g>
<g filter="url(#filter6_d_319_861)">
<rect x="103.729" y="131.758" width="30.4765" height="30.4765" rx="8.31176" fill="url(#paint4_linear_319_861)" shape-rendering="crispEdges"/>
<rect x="100.266" y="128.295" width="37.4029" height="37.4029" rx="11.775" stroke="black" stroke-opacity="0.05" stroke-width="6.92647" shape-rendering="crispEdges"/>
<g clip-path="url(#clip10_319_861)">
<path d="M116.529 143.953C116.529 144.432 116.339 144.891 116 145.23C115.661 145.568 115.202 145.758 114.723 145.758C114.245 145.758 113.785 145.568 113.447 145.23C113.108 144.891 112.918 144.432 112.918 143.953C112.918 143.474 113.108 143.015 113.447 142.676C113.785 142.338 114.245 142.147 114.723 142.147C115.202 142.147 115.661 142.338 116 142.676C116.339 143.015 116.529 143.474 116.529 143.953Z" fill="white"/>
<path d="M111.715 138.536C111.076 138.536 110.464 138.79 110.013 139.241C109.561 139.693 109.308 140.305 109.308 140.943V152.98C109.308 153.618 109.561 154.23 110.013 154.682C110.464 155.133 111.076 155.387 111.715 155.387H126.158C126.797 155.387 127.409 155.133 127.861 154.682C128.312 154.23 128.566 153.618 128.566 152.98V140.943C128.566 140.305 128.312 139.693 127.861 139.241C127.409 138.79 126.797 138.536 126.158 138.536H111.715ZM126.158 139.74C126.478 139.74 126.784 139.867 127.009 140.092C127.235 140.318 127.362 140.624 127.362 140.943V148.767L122.816 146.423C122.703 146.367 122.575 146.347 122.451 146.367C122.326 146.387 122.211 146.446 122.121 146.535L117.656 151.001L114.454 148.868C114.339 148.791 114.2 148.756 114.062 148.77C113.924 148.784 113.794 148.845 113.696 148.943L110.511 151.776V140.943C110.511 140.624 110.638 140.318 110.864 140.092C111.089 139.867 111.396 139.74 111.715 139.74H126.158Z" fill="white"/>
</g>
</g>
<g filter="url(#filter7_d_319_861)">
<rect x="44.8203" y="209.528" width="51.8671" height="51.8671" rx="14.1456" fill="url(#paint5_linear_319_861)" shape-rendering="crispEdges"/>
<rect x="38.9263" y="203.634" width="63.6551" height="63.6551" rx="20.0396" stroke="black" stroke-opacity="0.05" stroke-width="11.788" shape-rendering="crispEdges"/>
<g clip-path="url(#clip11_319_861)">
<path d="M58.8245 233.795C60.7045 233.795 62.2329 232.3 62.2329 230.461C62.2329 228.622 60.7045 227.126 58.8245 227.126C56.9446 227.126 55.4161 228.622 55.4161 230.461C55.4161 232.3 56.9446 233.795 58.8245 233.795ZM82.6834 233.795C84.5633 233.795 86.0918 232.3 86.0918 230.461C86.0918 228.622 84.5633 227.126 82.6834 227.126C80.8034 227.126 79.275 228.622 79.275 230.461C79.275 232.3 80.8034 233.795 82.6834 233.795ZM84.3876 235.462H80.9792C80.0419 235.462 79.1951 235.832 78.5773 236.431C80.7236 237.583 82.2467 239.661 82.5769 242.131H86.0918C87.0344 242.131 87.796 241.386 87.796 240.464V238.796C87.796 236.957 86.2675 235.462 84.3876 235.462ZM70.754 235.462C74.0505 235.462 76.7187 232.852 76.7187 229.627C76.7187 226.402 74.0505 223.792 70.754 223.792C67.4574 223.792 64.7892 226.402 64.7892 229.627C64.7892 232.852 67.4574 235.462 70.754 235.462ZM74.844 237.129H74.402C73.2943 237.65 72.0641 237.963 70.754 237.963C69.4439 237.963 68.219 237.65 67.1059 237.129H66.6639C63.2768 237.129 60.5287 239.818 60.5287 243.131V244.631C60.5287 246.012 61.6737 247.132 63.085 247.132H78.4229C79.8342 247.132 80.9792 246.012 80.9792 244.631V243.131C80.9792 239.818 78.2312 237.129 74.844 237.129ZM62.9306 236.431C62.3128 235.832 61.466 235.462 60.5287 235.462H57.1203C55.2404 235.462 53.7119 236.957 53.7119 238.796V240.464C53.7119 241.386 54.4735 242.131 55.4161 242.131H58.9257C59.2612 239.661 60.7844 237.583 62.9306 236.431Z" fill="white"/>
</g>
</g>
</g>
</g>
<defs>
<filter id="filter0_d_319_861" x="-21.6626" y="-15.8208" width="508.608" height="341.062" filterUnits="userSpaceOnUse" color-interpolation-filters="sRGB">
<feFlood flood-opacity="0" result="BackgroundImageFix"/>
<feColorMatrix in="SourceAlpha" type="matrix" values="0 0 0 0 0 0 0 0 0 0 0 0 0 0 0 0 0 0 127 0" result="hardAlpha"/>
<feOffset/>
<feGaussianBlur stdDeviation="16.4104"/>
<feComposite in2="hardAlpha" operator="out"/>
<feColorMatrix type="matrix" values="0 0 0 0 0 0 0 0 0 0 0 0 0 0 0 0 0 0 0.07 0"/>
<feBlend mode="normal" in2="BackgroundImageFix" result="effect1_dropShadow_319_861"/>
<feBlend mode="normal" in="SourceGraphic" in2="effect1_dropShadow_319_861" result="shape"/>
</filter>
<filter id="filter1_d_319_861" x="142.089" y="23.9915" width="182.636" height="269.853" filterUnits="userSpaceOnUse" color-interpolation-filters="sRGB">
<feFlood flood-opacity="0" result="BackgroundImageFix"/>
<feColorMatrix in="SourceAlpha" type="matrix" values="0 0 0 0 0 0 0 0 0 0 0 0 0 0 0 0 0 0 127 0" result="hardAlpha"/>
<feMorphology radius="5.33078" operator="dilate" in="SourceAlpha" result="effect1_dropShadow_319_861"/>
<feOffset/>
<feGaussianBlur stdDeviation="5.69728"/>
<feComposite in2="hardAlpha" operator="out"/>
<feColorMatrix type="matrix" values="0 0 0 0 0 0 0 0 0 0 0 0 0 0 0 0 0 0 0.02 0"/>
<feBlend mode="normal" in2="BackgroundImageFix" result="effect1_dropShadow_319_861"/>
<feBlend mode="normal" in="SourceGraphic" in2="effect1_dropShadow_319_861" result="shape"/>
</filter>
<filter id="filter2_d_319_861" x="317.992" y="202.618" width="84.9538" height="84.9538" filterUnits="userSpaceOnUse" color-interpolation-filters="sRGB">
<feFlood flood-opacity="0" result="BackgroundImageFix"/>
<feColorMatrix in="SourceAlpha" type="matrix" values="0 0 0 0 0 0 0 0 0 0 0 0 0 0 0 0 0 0 127 0" result="hardAlpha"/>
<feMorphology radius="3.23327" operator="dilate" in="SourceAlpha" result="effect1_dropShadow_319_861"/>
<feOffset/>
<feGaussianBlur stdDeviation="3.45556"/>
<feComposite in2="hardAlpha" operator="out"/>
<feColorMatrix type="matrix" values="0 0 0 0 0 0 0 0 0 0 0 0 0 0 0 0 0 0 0.02 0"/>
<feBlend mode="normal" in2="BackgroundImageFix" result="effect1_dropShadow_319_861"/>
<feBlend mode="normal" in="SourceGraphic" in2="effect1_dropShadow_319_861" result="shape"/>
</filter>
<filter id="filter3_d_319_861" x="370.541" y="111.472" width="66.5482" height="66.5482" filterUnits="userSpaceOnUse" color-interpolation-filters="sRGB">
<feFlood flood-opacity="0" result="BackgroundImageFix"/>
<feColorMatrix in="SourceAlpha" type="matrix" values="0 0 0 0 0 0 0 0 0 0 0 0 0 0 0 0 0 0 127 0" result="hardAlpha"/>
<feMorphology radius="2.53273" operator="dilate" in="SourceAlpha" result="effect1_dropShadow_319_861"/>
<feOffset/>
<feGaussianBlur stdDeviation="2.70686"/>
<feComposite in2="hardAlpha" operator="out"/>
<feColorMatrix type="matrix" values="0 0 0 0 0 0 0 0 0 0 0 0 0 0 0 0 0 0 0.02 0"/>
<feBlend mode="normal" in2="BackgroundImageFix" result="effect1_dropShadow_319_861"/>
<feBlend mode="normal" in="SourceGraphic" in2="effect1_dropShadow_319_861" result="shape"/>
</filter>
<filter id="filter4_d_319_861" x="304.251" y="22.9534" width="83.5385" height="83.5385" filterUnits="userSpaceOnUse" color-interpolation-filters="sRGB">
<feFlood flood-opacity="0" result="BackgroundImageFix"/>
<feColorMatrix in="SourceAlpha" type="matrix" values="0 0 0 0 0 0 0 0 0 0 0 0 0 0 0 0 0 0 127 0" result="hardAlpha"/>
<feMorphology radius="3.17939" operator="dilate" in="SourceAlpha" result="effect1_dropShadow_319_861"/>
<feOffset/>
<feGaussianBlur stdDeviation="3.39797"/>
<feComposite in2="hardAlpha" operator="out"/>
<feColorMatrix type="matrix" values="0 0 0 0 0 0 0 0 0 0 0 0 0 0 0 0 0 0 0.02 0"/>
<feBlend mode="normal" in2="BackgroundImageFix" result="effect1_dropShadow_319_861"/>
<feBlend mode="normal" in="SourceGraphic" in2="effect1_dropShadow_319_861" result="shape"/>
</filter>
<filter id="filter5_d_319_861" x="81.2375" y="37.7355" width="52.3884" height="52.3884" filterUnits="userSpaceOnUse" color-interpolation-filters="sRGB">
<feFlood flood-opacity="0" result="BackgroundImageFix"/>
<feColorMatrix in="SourceAlpha" type="matrix" values="0 0 0 0 0 0 0 0 0 0 0 0 0 0 0 0 0 0 127 0" result="hardAlpha"/>
<feMorphology radius="1.99385" operator="dilate" in="SourceAlpha" result="effect1_dropShadow_319_861"/>
<feOffset/>
<feGaussianBlur stdDeviation="2.13093"/>
<feComposite in2="hardAlpha" operator="out"/>
<feColorMatrix type="matrix" values="0 0 0 0 0 0 0 0 0 0 0 0 0 0 0 0 0 0 0.02 0"/>
<feBlend mode="normal" in2="BackgroundImageFix" result="effect1_dropShadow_319_861"/>
<feBlend mode="normal" in="SourceGraphic" in2="effect1_dropShadow_319_861" result="shape"/>
</filter>
<filter id="filter6_d_319_861" x="89.8486" y="117.877" width="58.2384" height="58.2384" filterUnits="userSpaceOnUse" color-interpolation-filters="sRGB">
<feFlood flood-opacity="0" result="BackgroundImageFix"/>
<feColorMatrix in="SourceAlpha" type="matrix" values="0 0 0 0 0 0 0 0 0 0 0 0 0 0 0 0 0 0 127 0" result="hardAlpha"/>
<feMorphology radius="2.21647" operator="dilate" in="SourceAlpha" result="effect1_dropShadow_319_861"/>
<feOffset/>
<feGaussianBlur stdDeviation="2.36885"/>
<feComposite in2="hardAlpha" operator="out"/>
<feColorMatrix type="matrix" values="0 0 0 0 0 0 0 0 0 0 0 0 0 0 0 0 0 0 0.02 0"/>
<feBlend mode="normal" in2="BackgroundImageFix" result="effect1_dropShadow_319_861"/>
<feBlend mode="normal" in="SourceGraphic" in2="effect1_dropShadow_319_861" result="shape"/>
</filter>
<filter id="filter7_d_319_861" x="21.1971" y="185.905" width="99.1136" height="99.1136" filterUnits="userSpaceOnUse" color-interpolation-filters="sRGB">
<feFlood flood-opacity="0" result="BackgroundImageFix"/>
<feColorMatrix in="SourceAlpha" type="matrix" values="0 0 0 0 0 0 0 0 0 0 0 0 0 0 0 0 0 0 127 0" result="hardAlpha"/>
<feMorphology radius="3.77215" operator="dilate" in="SourceAlpha" result="effect1_dropShadow_319_861"/>
<feOffset/>
<feGaussianBlur stdDeviation="4.03149"/>
<feComposite in2="hardAlpha" operator="out"/>
<feColorMatrix type="matrix" values="0 0 0 0 0 0 0 0 0 0 0 0 0 0 0 0 0 0 0.02 0"/>
<feBlend mode="normal" in2="BackgroundImageFix" result="effect1_dropShadow_319_861"/>
<feBlend mode="normal" in="SourceGraphic" in2="effect1_dropShadow_319_861" result="shape"/>
</filter>
<linearGradient id="paint0_linear_319_861" x1="338.24" y1="242.84" x2="382.698" y2="242.84" gradientUnits="userSpaceOnUse">
<stop stop-color="#DA48FE"/>
<stop offset="1" stop-color="#52C7FA"/>
</linearGradient>
<linearGradient id="paint1_linear_319_861" x1="386.402" y1="142.979" x2="421.227" y2="142.979" gradientUnits="userSpaceOnUse">
<stop stop-color="#DA48FE"/>
<stop offset="1" stop-color="#52C7FA"/>
</linearGradient>
<linearGradient id="paint2_linear_319_861" x1="324.162" y1="62.5052" x2="367.879" y2="62.5052" gradientUnits="userSpaceOnUse">
<stop stop-color="#DA48FE"/>
<stop offset="1" stop-color="#52C7FA"/>
</linearGradient>
<linearGradient id="paint3_linear_319_861" x1="93.7236" y1="62.5389" x2="121.139" y2="62.5389" gradientUnits="userSpaceOnUse">
<stop stop-color="#DA48FE"/>
<stop offset="1" stop-color="#52C7FA"/>
</linearGradient>
<linearGradient id="paint4_linear_319_861" x1="103.729" y1="145.45" x2="134.206" y2="145.45" gradientUnits="userSpaceOnUse">
<stop stop-color="#DA48FE"/>
<stop offset="1" stop-color="#52C7FA"/>
</linearGradient>
<linearGradient id="paint5_linear_319_861" x1="44.8203" y1="232.831" x2="96.6874" y2="232.831" gradientUnits="userSpaceOnUse">
<stop stop-color="#DA48FE"/>
<stop offset="1" stop-color="#52C7FA"/>
</linearGradient>
<clipPath id="clip0_319_861">
<rect x="11.1582" y="17" width="442.967" height="275.42" rx="15.3011" fill="white"/>
</clipPath>
<clipPath id="clip1_319_861">
<rect x="167.229" y="65.9639" width="132.354" height="203.505" rx="7.40958" fill="white"/>
</clipPath>
<clipPath id="clip2_319_861">
<rect x="173.157" y="130.427" width="18.524" height="18.524" rx="9.26198" fill="white"/>
</clipPath>
<clipPath id="clip3_319_861">
<rect x="196.868" y="130.427" width="18.524" height="18.524" rx="9.26198" fill="white"/>
</clipPath>
<clipPath id="clip4_319_861">
<rect x="220.578" y="130.427" width="18.524" height="18.524" rx="9.26198" fill="white"/>
</clipPath>
<clipPath id="clip5_319_861">
<rect x="244.289" y="130.427" width="18.524" height="18.524" rx="9.26198" fill="white"/>
</clipPath>
<clipPath id="clip6_319_861">
<rect x="268" y="130.427" width="18.524" height="18.524" rx="9.26198" fill="white"/>
</clipPath>
<clipPath id="clip7_319_861">
<rect x="291.711" y="130.427" width="18.524" height="18.524" rx="9.26198" fill="white"/>
</clipPath>
<clipPath id="clip8_319_861">
<rect width="5.92767" height="5.92767" fill="white" transform="translate(176.862 116.349)"/>
</clipPath>
<clipPath id="clip9_319_861">
<rect x="175.971" y="74.6748" width="23.7107" height="23.7107" rx="11.8553" fill="white"/>
</clipPath>
<clipPath id="clip10_319_861">
<rect width="19.258" height="19.258" fill="white" transform="translate(109.306 137.333)"/>
</clipPath>
<clipPath id="clip11_319_861">
<rect width="34.0841" height="26.6745" fill="white" transform="translate(53.7119 222.125)"/>
</clipPath>
</defs>
</svg>
