<svg width="486" height="318" viewBox="0 0 486 318" fill="none" xmlns="http://www.w3.org/2000/svg">
<g filter="url(#filter0_d_319_822)">
<g clip-path="url(#clip0_319_822)">
<path d="M97.4355 87.9016C97.4355 80.5098 103.428 74.5176 110.82 74.5176H396.776C404.168 74.5176 410.16 80.5098 410.16 87.9016V229.409C410.16 236.801 404.168 242.793 396.776 242.793H393.016C385.625 242.793 379.632 248.785 379.632 256.177V271.106C379.632 278.498 373.64 284.49 366.248 284.49H110.82C103.428 284.49 97.4355 278.498 97.4355 271.106V87.9016Z" stroke="#8F00FF" stroke-width="1.3384" stroke-dasharray="1.34 1.34"/>
<g filter="url(#filter1_d_319_822)">
<rect x="185.615" y="33.5654" width="301.238" height="145.04" rx="17.2594" fill="white"/>
<rect x="186.026" y="33.9764" width="300.416" height="144.219" rx="16.8485" stroke="black" stroke-opacity="0.08" stroke-width="0.821878"/>
</g>
<circle cx="203.287" cy="53.7012" r="3.69823" fill="#E87973"/>
<circle cx="215.615" cy="53.7012" r="3.69823" fill="#E8BB56"/>
<circle cx="227.941" cy="53.7012" r="3.69823" fill="#51C563"/>
<mask id="path-8-inside-1_319_822" fill="white">
<path fill-rule="evenodd" clip-rule="evenodd" d="M215.896 79.7865C215.896 76.7056 218.394 74.208 221.475 74.208H274.072C277.153 74.208 279.65 76.7056 279.65 79.7865C279.65 82.8674 277.153 85.365 274.072 85.365H221.475C218.394 85.365 215.896 82.8674 215.896 79.7865ZM200.755 95.2277C200.755 89.7808 205.17 85.3651 210.617 85.3651H461.847C467.294 85.3651 471.71 89.7808 471.71 95.2277V156.789C471.71 162.236 467.294 166.652 461.847 166.652H210.617C205.17 166.652 200.755 162.236 200.755 156.789V95.2277ZM358.546 79.7865C358.546 76.7056 356.048 74.208 352.967 74.208H300.37C297.289 74.208 294.792 76.7056 294.792 79.7865C294.792 82.8674 297.289 85.365 300.37 85.365H352.967C356.048 85.365 358.546 82.8674 358.546 79.7865Z"/>
</mask>
<path fill-rule="evenodd" clip-rule="evenodd" d="M215.896 79.7865C215.896 76.7056 218.394 74.208 221.475 74.208H274.072C277.153 74.208 279.65 76.7056 279.65 79.7865C279.65 82.8674 277.153 85.365 274.072 85.365H221.475C218.394 85.365 215.896 82.8674 215.896 79.7865ZM200.755 95.2277C200.755 89.7808 205.17 85.3651 210.617 85.3651H461.847C467.294 85.3651 471.71 89.7808 471.71 95.2277V156.789C471.71 162.236 467.294 166.652 461.847 166.652H210.617C205.17 166.652 200.755 162.236 200.755 156.789V95.2277ZM358.546 79.7865C358.546 76.7056 356.048 74.208 352.967 74.208H300.37C297.289 74.208 294.792 76.7056 294.792 79.7865C294.792 82.8674 297.289 85.365 300.37 85.365H352.967C356.048 85.365 358.546 82.8674 358.546 79.7865Z" fill="#F0F5FA"/>
<path d="M274.072 73.4111H221.475V75.0049H274.072V73.4111ZM221.475 86.1619H274.072V84.568H221.475V86.1619ZM210.617 84.5682C204.73 84.5682 199.958 89.3406 199.958 95.2277H201.552C201.552 90.2209 205.611 86.1621 210.617 86.1621V84.5682ZM461.847 84.5682H210.617V86.1621H461.847V84.5682ZM472.507 95.2277C472.507 89.3406 467.734 84.5682 461.847 84.5682V86.1621C466.854 86.1621 470.913 90.2209 470.913 95.2277H472.507ZM472.507 156.789V95.2277H470.913V156.789H472.507ZM461.847 167.449C467.734 167.449 472.507 162.676 472.507 156.789H470.913C470.913 161.796 466.854 165.855 461.847 165.855V167.449ZM210.617 167.449H461.847V165.855H210.617V167.449ZM199.958 156.789C199.958 162.676 204.73 167.449 210.617 167.449V165.855C205.611 165.855 201.552 161.796 201.552 156.789H199.958ZM199.958 95.2277V156.789H201.552V95.2277H199.958ZM300.37 75.0049H352.967V73.4111H300.37V75.0049ZM352.967 84.568H300.37V86.1619H352.967V84.568ZM352.967 86.1619C356.488 86.1619 359.343 83.3075 359.343 79.7865H357.749C357.749 82.4273 355.608 84.568 352.967 84.568V86.1619ZM293.995 79.7865C293.995 83.3075 296.849 86.1619 300.37 86.1619V84.568C297.729 84.568 295.589 82.4273 295.589 79.7865H293.995ZM221.475 84.568C218.834 84.568 216.693 82.4273 216.693 79.7865H215.099C215.099 83.3075 217.954 86.1619 221.475 86.1619V84.568ZM221.475 73.4111C217.954 73.4111 215.099 76.2654 215.099 79.7865H216.693C216.693 77.1457 218.834 75.0049 221.475 75.0049V73.4111ZM300.37 73.4111C296.849 73.4111 293.995 76.2654 293.995 79.7865H295.589C295.589 77.1457 297.729 75.0049 300.37 75.0049V73.4111ZM352.967 75.0049C355.608 75.0049 357.749 77.1457 357.749 79.7865H359.343C359.343 76.2654 356.488 73.4111 352.967 73.4111V75.0049ZM278.853 79.7865C278.853 82.4273 276.713 84.568 274.072 84.568V86.1619C277.593 86.1619 280.447 83.3075 280.447 79.7865H278.853ZM274.072 75.0049C276.713 75.0049 278.853 77.1457 278.853 79.7865H280.447C280.447 76.2654 277.593 73.4111 274.072 73.4111V75.0049Z" fill="black" fill-opacity="0.08" mask="url(#path-8-inside-1_319_822)"/>
<rect x="223.866" y="79.7871" width="47.0186" height="4.78155" rx="2.39078" fill="#D299FF"/>
<rect x="303.561" y="79.7871" width="47.0186" height="4.78155" rx="2.39078" fill="#D299FF" fill-opacity="0.24"/>
<g filter="url(#filter2_d_319_822)">
<rect x="33.4014" y="178.606" width="293.269" height="90.0526" rx="11.9133" fill="white"/>
<rect x="33.8123" y="179.017" width="292.447" height="89.2307" rx="11.5024" stroke="black" stroke-opacity="0.08" stroke-width="0.821878"/>
</g>
<path d="M50.5072 232.691C50.5072 233.245 50.316 233.708 49.9334 234.077C49.5573 234.441 48.9803 234.622 48.2025 234.622H46.9211V237.405H46.0508V230.74H48.2025C48.9548 230.74 49.5254 230.921 49.9143 231.285C50.3096 231.648 50.5072 232.117 50.5072 232.691ZM48.2025 233.905C48.687 233.905 49.0441 233.8 49.2736 233.59C49.5031 233.379 49.6179 233.08 49.6179 232.691C49.6179 231.868 49.1461 231.457 48.2025 231.457H46.9211V233.905H48.2025ZM52.4591 233.016C52.6121 232.716 52.8288 232.483 53.1094 232.318C53.3963 232.152 53.7437 232.069 54.1517 232.069V232.968H53.9222C52.9468 232.968 52.4591 233.497 52.4591 234.555V237.405H51.5888V232.165H52.4591V233.016ZM57.4419 237.491C56.951 237.491 56.5047 237.38 56.1031 237.157C55.7078 236.933 55.3954 236.618 55.1659 236.21C54.9427 235.795 54.8312 235.317 54.8312 234.775C54.8312 234.24 54.9459 233.768 55.1754 233.36C55.4113 232.946 55.7301 232.63 56.1318 232.413C56.5334 232.19 56.9829 232.079 57.4801 232.079C57.9774 232.079 58.4269 232.19 58.8285 232.413C59.2302 232.63 59.5458 232.942 59.7753 233.351C60.0112 233.759 60.1291 234.234 60.1291 234.775C60.1291 235.317 60.008 235.795 59.7657 236.21C59.5298 236.618 59.2079 236.933 58.7999 237.157C58.3918 237.38 57.9392 237.491 57.4419 237.491ZM57.4419 236.726C57.7543 236.726 58.0476 236.653 58.3217 236.506C58.5958 236.36 58.8158 236.14 58.9816 235.846C59.1537 235.553 59.2398 235.196 59.2398 234.775C59.2398 234.355 59.1569 233.998 58.9911 233.704C58.8254 233.411 58.6086 233.194 58.3408 233.054C58.0731 232.907 57.783 232.834 57.4706 232.834C57.1518 232.834 56.8585 232.907 56.5908 233.054C56.3294 233.194 56.119 233.411 55.9596 233.704C55.8002 233.998 55.7205 234.355 55.7205 234.775C55.7205 235.203 55.797 235.563 55.9501 235.856C56.1094 236.149 56.3198 236.369 56.5812 236.516C56.8426 236.656 57.1295 236.726 57.4419 236.726ZM62.3348 232.882V235.971C62.3348 236.226 62.389 236.408 62.4974 236.516C62.6058 236.618 62.7939 236.669 63.0616 236.669H63.7024V237.405H62.9182C62.4337 237.405 62.0703 237.294 61.828 237.071C61.5857 236.847 61.4646 236.481 61.4646 235.971V232.882H60.7856V232.165H61.4646V230.845H62.3348V232.165H63.7024V232.882H62.3348ZM69.5383 234.584C69.5383 234.75 69.5288 234.925 69.5096 235.11H65.321C65.3529 235.627 65.5282 236.031 65.847 236.325C66.1721 236.612 66.5642 236.755 67.0232 236.755C67.3994 236.755 67.7118 236.669 67.9604 236.497C68.2154 236.318 68.3939 236.082 68.496 235.789H69.4331C69.2929 236.293 69.0124 236.704 68.5916 237.023C68.1708 237.335 67.648 237.491 67.0232 237.491C66.526 237.491 66.0797 237.38 65.6844 237.157C65.2955 236.933 64.9895 236.618 64.7663 236.21C64.5432 235.795 64.4316 235.317 64.4316 234.775C64.4316 234.234 64.54 233.759 64.7568 233.351C64.9735 232.942 65.2764 232.63 65.6653 232.413C66.0606 232.19 66.5132 232.079 67.0232 232.079C67.5205 232.079 67.9604 232.187 68.3429 232.404C68.7255 232.621 69.0187 232.92 69.2228 233.303C69.4331 233.679 69.5383 234.106 69.5383 234.584ZM68.6394 234.402C68.6394 234.071 68.5661 233.787 68.4195 233.551C68.2728 233.309 68.072 233.127 67.817 233.006C67.5683 232.879 67.291 232.815 66.985 232.815C66.5451 232.815 66.1689 232.955 65.8565 233.236C65.5505 233.516 65.3752 233.905 65.3306 234.402H68.6394ZM70.3619 234.775C70.3619 234.234 70.4703 233.762 70.687 233.36C70.9038 232.952 71.2034 232.636 71.586 232.413C71.9749 232.19 72.418 232.079 72.9152 232.079C73.5591 232.079 74.0883 232.235 74.5027 232.547C74.9235 232.86 75.2008 233.293 75.3347 233.848H74.3975C74.3083 233.529 74.1329 233.277 73.8715 233.092C73.6165 232.907 73.2978 232.815 72.9152 232.815C72.418 232.815 72.0163 232.987 71.7103 233.331C71.4043 233.669 71.2513 234.151 71.2513 234.775C71.2513 235.407 71.4043 235.894 71.7103 236.239C72.0163 236.583 72.418 236.755 72.9152 236.755C73.2978 236.755 73.6165 236.666 73.8715 236.487C74.1266 236.309 74.3019 236.054 74.3975 235.722H75.3347C75.1944 236.258 74.9139 236.688 74.4931 237.013C74.0724 237.332 73.5464 237.491 72.9152 237.491C72.418 237.491 71.9749 237.38 71.586 237.157C71.2034 236.933 70.9038 236.618 70.687 236.21C70.4703 235.802 70.3619 235.324 70.3619 234.775ZM77.5574 232.882V235.971C77.5574 236.226 77.6116 236.408 77.7199 236.516C77.8283 236.618 78.0164 236.669 78.2842 236.669H78.9249V237.405H78.1407C77.6562 237.405 77.2928 237.294 77.0505 237.071C76.8083 236.847 76.6871 236.481 76.6871 235.971V232.882H76.0082V232.165H76.6871V230.845H77.5574V232.165H78.9249V232.882H77.5574ZM82.2037 234.766C82.2037 234.23 82.3121 233.762 82.5288 233.36C82.7456 232.952 83.0421 232.636 83.4182 232.413C83.8007 232.19 84.2279 232.079 84.6997 232.079C85.1077 232.079 85.487 232.174 85.8377 232.366C86.1883 232.55 86.4561 232.796 86.641 233.102V230.329H87.5208V237.405H86.641V236.42C86.4688 236.733 86.2138 236.991 85.8759 237.195C85.538 237.393 85.1428 237.491 84.6901 237.491C84.2247 237.491 83.8007 237.377 83.4182 237.147C83.0421 236.918 82.7456 236.596 82.5288 236.181C82.3121 235.767 82.2037 235.295 82.2037 234.766ZM86.641 234.775C86.641 234.38 86.5613 234.036 86.4019 233.743C86.2425 233.449 86.0258 233.226 85.7516 233.073C85.4838 232.914 85.1874 232.834 84.8622 232.834C84.5371 232.834 84.2406 232.911 83.9729 233.064C83.7051 233.217 83.4915 233.44 83.3321 233.733C83.1728 234.026 83.0931 234.371 83.0931 234.766C83.0931 235.168 83.1728 235.518 83.3321 235.818C83.4915 236.111 83.7051 236.337 83.9729 236.497C84.2406 236.65 84.5371 236.726 84.8622 236.726C85.1874 236.726 85.4838 236.65 85.7516 236.497C86.0258 236.337 86.2425 236.111 86.4019 235.818C86.5613 235.518 86.641 235.171 86.641 234.775ZM91.277 237.491C90.7861 237.491 90.3398 237.38 89.9382 237.157C89.5429 236.933 89.2305 236.618 89.001 236.21C88.7778 235.795 88.6663 235.317 88.6663 234.775C88.6663 234.24 88.781 233.768 89.0105 233.36C89.2464 232.946 89.5652 232.63 89.9669 232.413C90.3685 232.19 90.818 232.079 91.3153 232.079C91.8125 232.079 92.262 232.19 92.6637 232.413C93.0653 232.63 93.3809 232.942 93.6104 233.351C93.8463 233.759 93.9642 234.234 93.9642 234.775C93.9642 235.317 93.8431 235.795 93.6008 236.21C93.3649 236.618 93.043 236.933 92.635 237.157C92.2269 237.38 91.7743 237.491 91.277 237.491ZM91.277 236.726C91.5894 236.726 91.8827 236.653 92.1568 236.506C92.431 236.36 92.6509 236.14 92.8167 235.846C92.9888 235.553 93.0749 235.196 93.0749 234.775C93.0749 234.355 92.992 233.998 92.8262 233.704C92.6605 233.411 92.4437 233.194 92.1759 233.054C91.9082 232.907 91.6181 232.834 91.3057 232.834C90.9869 232.834 90.6937 232.907 90.4259 233.054C90.1645 233.194 89.9541 233.411 89.7947 233.704C89.6353 233.998 89.5556 234.355 89.5556 234.775C89.5556 235.203 89.6321 235.563 89.7852 235.856C89.9445 236.149 90.1549 236.369 90.4163 236.516C90.6777 236.656 90.9646 236.726 91.277 236.726ZM101.411 232.069C101.819 232.069 102.182 232.155 102.501 232.327C102.82 232.493 103.071 232.745 103.256 233.083C103.441 233.421 103.534 233.832 103.534 234.316V237.405H102.673V234.441C102.673 233.918 102.542 233.519 102.281 233.245C102.026 232.965 101.678 232.825 101.238 232.825C100.786 232.825 100.426 232.971 100.158 233.264C99.89 233.551 99.7561 233.969 99.7561 234.517V237.405H98.8954V234.441C98.8954 233.918 98.7647 233.519 98.5034 233.245C98.2483 232.965 97.9009 232.825 97.461 232.825C97.0083 232.825 96.6481 232.971 96.3803 233.264C96.1126 233.551 95.9787 233.969 95.9787 234.517V237.405H95.1084V232.165H95.9787V232.92C96.1508 232.646 96.3803 232.436 96.6672 232.289C96.9605 232.142 97.2825 232.069 97.6331 232.069C98.073 232.069 98.4619 232.168 98.7998 232.366C99.1377 232.563 99.3895 232.853 99.5553 233.236C99.7019 232.866 99.9442 232.579 100.282 232.375C100.62 232.171 100.996 232.069 101.411 232.069ZM104.636 234.766C104.636 234.23 104.744 233.762 104.961 233.36C105.178 232.952 105.474 232.636 105.85 232.413C106.233 232.19 106.657 232.079 107.122 232.079C107.581 232.079 107.98 232.177 108.318 232.375C108.656 232.573 108.907 232.821 109.073 233.121V232.165H109.953V237.405H109.073V236.43C108.901 236.736 108.643 236.991 108.299 237.195C107.961 237.393 107.565 237.491 107.113 237.491C106.647 237.491 106.227 237.377 105.85 237.147C105.474 236.918 105.178 236.596 104.961 236.181C104.744 235.767 104.636 235.295 104.636 234.766ZM109.073 234.775C109.073 234.38 108.994 234.036 108.834 233.743C108.675 233.449 108.458 233.226 108.184 233.073C107.916 232.914 107.62 232.834 107.294 232.834C106.969 232.834 106.673 232.911 106.405 233.064C106.137 233.217 105.924 233.44 105.764 233.733C105.605 234.026 105.525 234.371 105.525 234.766C105.525 235.168 105.605 235.518 105.764 235.818C105.924 236.111 106.137 236.337 106.405 236.497C106.673 236.65 106.969 236.726 107.294 236.726C107.62 236.726 107.916 236.65 108.184 236.497C108.458 236.337 108.675 236.111 108.834 235.818C108.994 235.518 109.073 235.171 109.073 234.775ZM111.873 231.314C111.707 231.314 111.567 231.256 111.452 231.141C111.338 231.027 111.28 230.886 111.28 230.721C111.28 230.555 111.338 230.415 111.452 230.3C111.567 230.185 111.707 230.128 111.873 230.128C112.032 230.128 112.166 230.185 112.275 230.3C112.39 230.415 112.447 230.555 112.447 230.721C112.447 230.886 112.39 231.027 112.275 231.141C112.166 231.256 112.032 231.314 111.873 231.314ZM112.294 232.165V237.405H111.424V232.165H112.294ZM116.33 232.069C116.968 232.069 117.484 232.264 117.88 232.652C118.275 233.035 118.473 233.59 118.473 234.316V237.405H117.612V234.441C117.612 233.918 117.481 233.519 117.22 233.245C116.958 232.965 116.601 232.825 116.149 232.825C115.69 232.825 115.323 232.968 115.049 233.255C114.781 233.542 114.647 233.959 114.647 234.508V237.405H113.777V232.165H114.647V232.911C114.819 232.643 115.052 232.436 115.345 232.289C115.645 232.142 115.973 232.069 116.33 232.069ZM120.171 237.463C120.006 237.463 119.865 237.405 119.751 237.291C119.636 237.176 119.579 237.035 119.579 236.87C119.579 236.704 119.636 236.564 119.751 236.449C119.865 236.334 120.006 236.277 120.171 236.277C120.331 236.277 120.465 236.334 120.573 236.449C120.688 236.564 120.745 236.704 120.745 236.87C120.745 237.035 120.688 237.176 120.573 237.291C120.465 237.405 120.331 237.463 120.171 237.463ZM120.171 233.37C120.006 233.37 119.865 233.312 119.751 233.198C119.636 233.083 119.579 232.942 119.579 232.777C119.579 232.611 119.636 232.471 119.751 232.356C119.865 232.241 120.006 232.184 120.171 232.184C120.331 232.184 120.465 232.241 120.573 232.356C120.688 232.471 120.745 232.611 120.745 232.777C120.745 232.942 120.688 233.083 120.573 233.198C120.465 233.312 120.331 233.37 120.171 233.37Z" fill="#605A57"/>
<path d="M33.4014 200.123H326.67" stroke="black" stroke-opacity="0.08" stroke-width="0.796926"/>
<rect x="42.9648" y="189.764" width="47.0186" height="4.78155" rx="2.39078" fill="#D9D9D9"/>
<rect x="101.14" y="189.764" width="47.0186" height="4.78155" rx="2.39078" fill="#D9D9D9"/>
<rect x="159.316" y="189.764" width="47.0186" height="4.78155" rx="2.39078" fill="#D9D9D9"/>
<rect x="212.709" y="189.764" width="47.0186" height="4.78155" rx="2.39078" fill="#D9D9D9"/>
<path d="M122.379 234.975C195.059 202.779 218.686 145.134 218.686 122.422H329.061C298.645 140.486 246.977 167.448 232.633 220.045L122.379 234.975Z" fill="url(#paint0_linear_319_822)"/>
<rect x="212.323" y="97.7303" width="266.148" height="25.3043" rx="7.80784" fill="white"/>
<rect x="212.323" y="97.7303" width="266.148" height="25.3043" rx="7.80784" stroke="#8F00FF" stroke-width="0.821878"/>
<path d="M230.484 107.656C230.96 107.656 231.384 107.757 231.756 107.957C232.128 108.151 232.422 108.445 232.637 108.839C232.853 109.233 232.961 109.713 232.961 110.278V113.882H231.957V110.423C231.957 109.813 231.804 109.348 231.499 109.029C231.202 108.701 230.796 108.538 230.283 108.538C229.755 108.538 229.335 108.709 229.022 109.051C228.71 109.386 228.554 109.873 228.554 110.512V113.882H227.55V110.423C227.55 109.813 227.397 109.348 227.092 109.029C226.795 108.701 226.389 108.538 225.876 108.538C225.348 108.538 224.928 108.709 224.615 109.051C224.303 109.386 224.147 109.873 224.147 110.512V113.882H223.132V107.768H224.147V108.649C224.348 108.329 224.615 108.084 224.95 107.913C225.292 107.742 225.668 107.656 226.077 107.656C226.59 107.656 227.044 107.772 227.438 108.002C227.832 108.233 228.126 108.571 228.32 109.017C228.491 108.586 228.773 108.251 229.167 108.013C229.562 107.775 230.001 107.656 230.484 107.656ZM239.892 107.768L236.211 116.76H235.162L236.367 113.815L233.901 107.768H235.028L236.947 112.722L238.844 107.768H239.892ZM249.058 107.768L247.15 113.882H246.101L244.628 109.029L243.156 113.882H242.107L240.188 107.768H241.225L242.631 112.9L244.148 107.768H245.186L246.67 112.911L248.053 107.768H249.058ZM255.644 110.591C255.644 110.784 255.632 110.988 255.61 111.204H250.723C250.761 111.807 250.965 112.279 251.337 112.621C251.716 112.956 252.174 113.123 252.709 113.123C253.148 113.123 253.513 113.023 253.803 112.822C254.1 112.614 254.309 112.338 254.428 111.996H255.521C255.357 112.584 255.03 113.064 254.539 113.436C254.048 113.8 253.438 113.982 252.709 113.982C252.129 113.982 251.609 113.852 251.147 113.592C250.694 113.331 250.337 112.963 250.076 112.487C249.816 112.004 249.686 111.446 249.686 110.814C249.686 110.181 249.812 109.627 250.065 109.151C250.318 108.675 250.671 108.311 251.125 108.058C251.586 107.798 252.114 107.667 252.709 107.667C253.29 107.667 253.803 107.794 254.249 108.047C254.695 108.3 255.037 108.649 255.275 109.095C255.521 109.534 255.644 110.033 255.644 110.591ZM254.595 110.379C254.595 109.992 254.509 109.661 254.338 109.386C254.167 109.103 253.933 108.891 253.635 108.75C253.345 108.601 253.022 108.526 252.665 108.526C252.151 108.526 251.713 108.69 251.348 109.017C250.991 109.345 250.787 109.798 250.735 110.379H254.595ZM257.999 108.906C258.207 108.541 258.512 108.244 258.914 108.013C259.316 107.783 259.773 107.667 260.286 107.667C260.837 107.667 261.331 107.798 261.77 108.058C262.209 108.318 262.555 108.686 262.808 109.162C263.061 109.631 263.187 110.178 263.187 110.803C263.187 111.42 263.061 111.97 262.808 112.454C262.555 112.937 262.205 113.313 261.759 113.581C261.32 113.848 260.829 113.982 260.286 113.982C259.758 113.982 259.293 113.867 258.892 113.636C258.497 113.406 258.2 113.112 257.999 112.755V113.882H256.984V105.626H257.999V108.906ZM262.149 110.803C262.149 110.341 262.056 109.94 261.871 109.598C261.685 109.255 261.432 108.995 261.112 108.817C260.799 108.638 260.454 108.549 260.074 108.549C259.702 108.549 259.356 108.642 259.037 108.828C258.724 109.006 258.471 109.27 258.278 109.62C258.092 109.962 257.999 110.36 257.999 110.814C257.999 111.275 258.092 111.68 258.278 112.03C258.471 112.372 258.724 112.636 259.037 112.822C259.356 113 259.702 113.09 260.074 113.09C260.454 113.09 260.799 113 261.112 112.822C261.432 112.636 261.685 112.372 261.871 112.03C262.056 111.68 262.149 111.271 262.149 110.803ZM266.688 113.982C266.219 113.982 265.799 113.904 265.427 113.748C265.055 113.584 264.761 113.361 264.546 113.079C264.33 112.788 264.211 112.457 264.189 112.086H265.237C265.267 112.391 265.409 112.64 265.661 112.833C265.922 113.026 266.26 113.123 266.677 113.123C267.064 113.123 267.368 113.038 267.592 112.867C267.815 112.695 267.926 112.48 267.926 112.219C267.926 111.952 267.807 111.755 267.569 111.628C267.331 111.494 266.963 111.364 266.465 111.238C266.011 111.119 265.639 111 265.349 110.881C265.066 110.754 264.821 110.572 264.613 110.334C264.412 110.088 264.311 109.769 264.311 109.374C264.311 109.062 264.404 108.776 264.59 108.515C264.776 108.255 265.04 108.05 265.383 107.902C265.725 107.746 266.115 107.667 266.554 107.667C267.231 107.667 267.778 107.838 268.194 108.181C268.611 108.523 268.834 108.991 268.863 109.586H267.848C267.826 109.267 267.696 109.01 267.458 108.817C267.227 108.623 266.915 108.526 266.521 108.526C266.156 108.526 265.866 108.605 265.65 108.761C265.435 108.917 265.327 109.122 265.327 109.374C265.327 109.575 265.39 109.743 265.516 109.876C265.65 110.003 265.814 110.107 266.007 110.189C266.208 110.263 266.483 110.349 266.833 110.445C267.272 110.564 267.629 110.684 267.904 110.803C268.179 110.914 268.413 111.085 268.607 111.316C268.808 111.546 268.912 111.848 268.919 112.219C268.919 112.554 268.826 112.855 268.64 113.123C268.454 113.391 268.19 113.603 267.848 113.759C267.514 113.908 267.127 113.982 266.688 113.982ZM270.877 106.775C270.683 106.775 270.52 106.708 270.386 106.574C270.252 106.44 270.185 106.277 270.185 106.083C270.185 105.89 270.252 105.726 270.386 105.592C270.52 105.458 270.683 105.391 270.877 105.391C271.063 105.391 271.219 105.458 271.345 105.592C271.479 105.726 271.546 105.89 271.546 106.083C271.546 106.277 271.479 106.44 271.345 106.574C271.219 106.708 271.063 106.775 270.877 106.775ZM271.368 107.768V113.882H270.353V107.768H271.368ZM274.337 108.605V112.208C274.337 112.506 274.4 112.718 274.526 112.844C274.653 112.963 274.872 113.023 275.185 113.023H275.932V113.882H275.017C274.452 113.882 274.028 113.752 273.745 113.491C273.463 113.231 273.321 112.803 273.321 112.208V108.605H272.529V107.768H273.321V106.228H274.337V107.768H275.932V108.605H274.337ZM282.741 110.591C282.741 110.784 282.73 110.988 282.707 111.204H277.82C277.858 111.807 278.062 112.279 278.434 112.621C278.813 112.956 279.271 113.123 279.806 113.123C280.245 113.123 280.61 113.023 280.9 112.822C281.197 112.614 281.406 112.338 281.525 111.996H282.618C282.454 112.584 282.127 113.064 281.636 113.436C281.145 113.8 280.535 113.982 279.806 113.982C279.226 113.982 278.706 113.852 278.244 113.592C277.791 113.331 277.434 112.963 277.173 112.487C276.913 112.004 276.783 111.446 276.783 110.814C276.783 110.181 276.909 109.627 277.162 109.151C277.415 108.675 277.768 108.311 278.222 108.058C278.683 107.798 279.211 107.667 279.806 107.667C280.387 107.667 280.9 107.794 281.346 108.047C281.792 108.3 282.134 108.649 282.372 109.095C282.618 109.534 282.741 110.033 282.741 110.591ZM281.692 110.379C281.692 109.992 281.606 109.661 281.435 109.386C281.264 109.103 281.03 108.891 280.732 108.75C280.442 108.601 280.119 108.526 279.762 108.526C279.249 108.526 278.81 108.69 278.445 109.017C278.088 109.345 277.884 109.798 277.832 110.379H281.692ZM284.404 113.949C284.211 113.949 284.047 113.882 283.913 113.748C283.78 113.614 283.713 113.45 283.713 113.257C283.713 113.064 283.78 112.9 283.913 112.766C284.047 112.632 284.211 112.565 284.404 112.565C284.59 112.565 284.747 112.632 284.873 112.766C285.007 112.9 285.074 113.064 285.074 113.257C285.074 113.45 285.007 113.614 284.873 113.748C284.747 113.882 284.59 113.949 284.404 113.949ZM286.044 110.814C286.044 110.181 286.17 109.631 286.423 109.162C286.676 108.686 287.026 108.318 287.472 108.058C287.926 107.798 288.443 107.667 289.023 107.667C289.774 107.667 290.391 107.85 290.875 108.214C291.366 108.579 291.689 109.084 291.846 109.731H290.752C290.648 109.36 290.444 109.066 290.139 108.85C289.841 108.634 289.469 108.526 289.023 108.526C288.443 108.526 287.974 108.727 287.617 109.129C287.26 109.523 287.082 110.085 287.082 110.814C287.082 111.55 287.26 112.119 287.617 112.521C287.974 112.922 288.443 113.123 289.023 113.123C289.469 113.123 289.841 113.019 290.139 112.811C290.436 112.603 290.641 112.305 290.752 111.918H291.846C291.682 112.543 291.355 113.045 290.864 113.424C290.373 113.796 289.759 113.982 289.023 113.982C288.443 113.982 287.926 113.852 287.472 113.592C287.026 113.331 286.676 112.963 286.423 112.487C286.17 112.011 286.044 111.453 286.044 110.814ZM295.867 113.982C295.294 113.982 294.773 113.852 294.305 113.592C293.844 113.331 293.479 112.963 293.211 112.487C292.951 112.004 292.821 111.446 292.821 110.814C292.821 110.189 292.955 109.638 293.223 109.162C293.498 108.679 293.87 108.311 294.338 108.058C294.807 107.798 295.331 107.667 295.911 107.667C296.492 107.667 297.016 107.798 297.485 108.058C297.953 108.311 298.321 108.675 298.589 109.151C298.864 109.627 299.002 110.181 299.002 110.814C299.002 111.446 298.861 112.004 298.578 112.487C298.303 112.963 297.927 113.331 297.451 113.592C296.975 113.852 296.447 113.982 295.867 113.982ZM295.867 113.09C296.231 113.09 296.573 113.004 296.893 112.833C297.213 112.662 297.47 112.405 297.663 112.063C297.864 111.721 297.964 111.305 297.964 110.814C297.964 110.323 297.868 109.906 297.674 109.564C297.481 109.222 297.228 108.969 296.916 108.805C296.603 108.634 296.265 108.549 295.9 108.549C295.528 108.549 295.186 108.634 294.874 108.805C294.569 108.969 294.323 109.222 294.137 109.564C293.952 109.906 293.859 110.323 293.859 110.814C293.859 111.312 293.948 111.732 294.126 112.074C294.312 112.417 294.558 112.673 294.863 112.844C295.168 113.008 295.502 113.09 295.867 113.09ZM307.689 107.656C308.165 107.656 308.589 107.757 308.961 107.957C309.333 108.151 309.627 108.445 309.843 108.839C310.058 109.233 310.166 109.713 310.166 110.278V113.882H309.162V110.423C309.162 109.813 309.01 109.348 308.705 109.029C308.407 108.701 308.002 108.538 307.488 108.538C306.96 108.538 306.54 108.709 306.228 109.051C305.915 109.386 305.759 109.873 305.759 110.512V113.882H304.755V110.423C304.755 109.813 304.603 109.348 304.298 109.029C304 108.701 303.595 108.538 303.081 108.538C302.553 108.538 302.133 108.709 301.821 109.051C301.508 109.386 301.352 109.873 301.352 110.512V113.882H300.337V107.768H301.352V108.649C301.553 108.329 301.821 108.084 302.155 107.913C302.498 107.742 302.873 107.656 303.282 107.656C303.795 107.656 304.249 107.772 304.643 108.002C305.038 108.233 305.331 108.571 305.525 109.017C305.696 108.586 305.979 108.251 306.373 108.013C306.767 107.775 307.206 107.656 307.689 107.656Z" fill="#282828"/>
<path d="M128.235 226.671C128.235 222.132 131.915 218.452 136.454 218.452H327.467V247.766H136.454C131.915 247.766 128.235 244.086 128.235 239.547V226.671Z" fill="#F9F9F9"/>
<rect width="89" height="14.9693" transform="translate(138.596 225.624)" fill="#8F00FF" fill-opacity="0.15"/>
<path d="M146.807 230.383C147.283 230.383 147.707 230.483 148.079 230.684C148.451 230.877 148.745 231.171 148.961 231.565C149.176 231.96 149.284 232.439 149.284 233.005V236.608H148.28V233.15C148.28 232.54 148.127 232.075 147.823 231.755C147.525 231.428 147.12 231.264 146.606 231.264C146.078 231.264 145.658 231.435 145.346 231.777C145.033 232.112 144.877 232.599 144.877 233.239V236.608H143.873V233.15C143.873 232.54 143.72 232.075 143.416 231.755C143.118 231.428 142.713 231.264 142.199 231.264C141.671 231.264 141.251 231.435 140.939 231.777C140.626 232.112 140.47 232.599 140.47 233.239V236.608H139.455V230.494H140.47V231.376C140.671 231.056 140.939 230.81 141.273 230.639C141.616 230.468 141.991 230.383 142.4 230.383C142.913 230.383 143.367 230.498 143.761 230.729C144.156 230.959 144.449 231.298 144.643 231.744C144.814 231.313 145.096 230.978 145.491 230.74C145.885 230.502 146.324 230.383 146.807 230.383ZM156.216 230.494L152.534 239.487H151.485L152.69 236.541L150.224 230.494H151.351L153.27 235.448L155.167 230.494H156.216ZM165.381 230.494L163.473 236.608H162.424L160.951 231.755L159.479 236.608H158.43L156.511 230.494H157.549L158.954 235.627L160.472 230.494H161.509L162.993 235.638L164.377 230.494H165.381ZM171.967 233.317C171.967 233.51 171.956 233.715 171.933 233.931H167.047C167.084 234.533 167.288 235.006 167.66 235.348C168.04 235.682 168.497 235.85 169.033 235.85C169.471 235.85 169.836 235.749 170.126 235.548C170.423 235.34 170.632 235.065 170.751 234.723H171.844C171.681 235.31 171.353 235.79 170.862 236.162C170.371 236.527 169.762 236.709 169.033 236.709C168.452 236.709 167.932 236.579 167.471 236.318C167.017 236.058 166.66 235.69 166.4 235.214C166.139 234.73 166.009 234.172 166.009 233.54C166.009 232.908 166.135 232.354 166.388 231.878C166.641 231.402 166.995 231.037 167.448 230.784C167.909 230.524 168.438 230.394 169.033 230.394C169.613 230.394 170.126 230.52 170.572 230.773C171.019 231.026 171.361 231.376 171.599 231.822C171.844 232.261 171.967 232.759 171.967 233.317ZM170.918 233.105C170.918 232.718 170.833 232.387 170.662 232.112C170.49 231.83 170.256 231.618 169.959 231.476C169.669 231.327 169.345 231.253 168.988 231.253C168.475 231.253 168.036 231.417 167.671 231.744C167.314 232.071 167.11 232.525 167.058 233.105H170.918ZM174.322 231.632C174.531 231.268 174.836 230.97 175.237 230.74C175.639 230.509 176.096 230.394 176.609 230.394C177.16 230.394 177.655 230.524 178.093 230.784C178.532 231.045 178.878 231.413 179.131 231.889C179.384 232.358 179.51 232.904 179.51 233.529C179.51 234.146 179.384 234.697 179.131 235.18C178.878 235.664 178.528 236.039 178.082 236.307C177.643 236.575 177.152 236.709 176.609 236.709C176.081 236.709 175.617 236.594 175.215 236.363C174.821 236.132 174.523 235.839 174.322 235.482V236.608H173.307V228.352H174.322V231.632ZM178.473 233.529C178.473 233.068 178.38 232.666 178.194 232.324C178.008 231.982 177.755 231.722 177.435 231.543C177.123 231.365 176.777 231.275 176.397 231.275C176.026 231.275 175.68 231.368 175.36 231.554C175.047 231.733 174.795 231.997 174.601 232.346C174.415 232.689 174.322 233.087 174.322 233.54C174.322 234.001 174.415 234.407 174.601 234.756C174.795 235.098 175.047 235.363 175.36 235.548C175.68 235.727 176.026 235.816 176.397 235.816C176.777 235.816 177.123 235.727 177.435 235.548C177.755 235.363 178.008 235.098 178.194 234.756C178.38 234.407 178.473 233.998 178.473 233.529ZM183.011 236.709C182.543 236.709 182.122 236.631 181.75 236.475C181.378 236.311 181.085 236.088 180.869 235.805C180.653 235.515 180.534 235.184 180.512 234.812H181.561C181.59 235.117 181.732 235.366 181.985 235.56C182.245 235.753 182.583 235.85 183 235.85C183.387 235.85 183.692 235.764 183.915 235.593C184.138 235.422 184.25 235.206 184.25 234.946C184.25 234.678 184.131 234.481 183.893 234.355C183.655 234.221 183.286 234.091 182.788 233.964C182.334 233.845 181.962 233.726 181.672 233.607C181.39 233.481 181.144 233.298 180.936 233.06C180.735 232.815 180.635 232.495 180.635 232.101C180.635 231.789 180.728 231.502 180.914 231.242C181.1 230.982 181.364 230.777 181.706 230.628C182.048 230.472 182.438 230.394 182.877 230.394C183.554 230.394 184.101 230.565 184.517 230.907C184.934 231.249 185.157 231.718 185.187 232.313H184.171C184.149 231.993 184.019 231.737 183.781 231.543C183.55 231.35 183.238 231.253 182.844 231.253C182.479 231.253 182.189 231.331 181.974 231.487C181.758 231.644 181.65 231.848 181.65 232.101C181.65 232.302 181.713 232.469 181.84 232.603C181.974 232.729 182.137 232.834 182.331 232.915C182.531 232.99 182.807 233.075 183.156 233.172C183.595 233.291 183.952 233.41 184.227 233.529C184.502 233.641 184.737 233.812 184.93 234.042C185.131 234.273 185.235 234.574 185.243 234.946C185.243 235.281 185.15 235.582 184.964 235.85C184.778 236.117 184.514 236.329 184.171 236.486C183.837 236.634 183.45 236.709 183.011 236.709ZM187.2 229.501C187.007 229.501 186.843 229.434 186.709 229.301C186.575 229.167 186.508 229.003 186.508 228.81C186.508 228.616 186.575 228.453 186.709 228.319C186.843 228.185 187.007 228.118 187.2 228.118C187.386 228.118 187.542 228.185 187.669 228.319C187.803 228.453 187.87 228.616 187.87 228.81C187.87 229.003 187.803 229.167 187.669 229.301C187.542 229.434 187.386 229.501 187.2 229.501ZM187.691 230.494V236.608H186.676V230.494H187.691ZM190.66 231.331V234.935C190.66 235.232 190.723 235.444 190.85 235.571C190.976 235.69 191.195 235.749 191.508 235.749H192.255V236.608H191.34C190.775 236.608 190.351 236.478 190.069 236.218C189.786 235.958 189.645 235.53 189.645 234.935V231.331H188.852V230.494H189.645V228.955H190.66V230.494H192.255V231.331H190.66ZM199.064 233.317C199.064 233.51 199.053 233.715 199.03 233.931H194.144C194.181 234.533 194.385 235.006 194.757 235.348C195.137 235.682 195.594 235.85 196.13 235.85C196.568 235.85 196.933 235.749 197.223 235.548C197.521 235.34 197.729 235.065 197.848 234.723H198.941C198.778 235.31 198.45 235.79 197.959 236.162C197.468 236.527 196.859 236.709 196.13 236.709C195.549 236.709 195.029 236.579 194.568 236.318C194.114 236.058 193.757 235.69 193.497 235.214C193.236 234.73 193.106 234.172 193.106 233.54C193.106 232.908 193.233 232.354 193.485 231.878C193.738 231.402 194.092 231.037 194.545 230.784C195.006 230.524 195.535 230.394 196.13 230.394C196.71 230.394 197.223 230.52 197.669 230.773C198.116 231.026 198.458 231.376 198.696 231.822C198.941 232.261 199.064 232.759 199.064 233.317ZM198.015 233.105C198.015 232.718 197.93 232.387 197.759 232.112C197.587 231.83 197.353 231.618 197.056 231.476C196.766 231.327 196.442 231.253 196.085 231.253C195.572 231.253 195.133 231.417 194.768 231.744C194.411 232.071 194.207 232.525 194.155 233.105H198.015ZM200.728 236.675C200.534 236.675 200.371 236.608 200.237 236.475C200.103 236.341 200.036 236.177 200.036 235.984C200.036 235.79 200.103 235.627 200.237 235.493C200.371 235.359 200.534 235.292 200.728 235.292C200.914 235.292 201.07 235.359 201.196 235.493C201.33 235.627 201.397 235.79 201.397 235.984C201.397 236.177 201.33 236.341 201.196 236.475C201.07 236.608 200.914 236.675 200.728 236.675ZM202.367 233.54C202.367 232.908 202.494 232.358 202.747 231.889C202.999 231.413 203.349 231.045 203.795 230.784C204.249 230.524 204.766 230.394 205.346 230.394C206.097 230.394 206.715 230.576 207.198 230.941C207.689 231.305 208.013 231.811 208.169 232.458H207.075C206.971 232.086 206.767 231.792 206.462 231.577C206.164 231.361 205.792 231.253 205.346 231.253C204.766 231.253 204.297 231.454 203.94 231.856C203.583 232.25 203.405 232.811 203.405 233.54C203.405 234.277 203.583 234.846 203.94 235.247C204.297 235.649 204.766 235.85 205.346 235.85C205.792 235.85 206.164 235.746 206.462 235.537C206.759 235.329 206.964 235.032 207.075 234.645H208.169C208.005 235.27 207.678 235.772 207.187 236.151C206.696 236.523 206.083 236.709 205.346 236.709C204.766 236.709 204.249 236.579 203.795 236.318C203.349 236.058 202.999 235.69 202.747 235.214C202.494 234.738 202.367 234.18 202.367 233.54ZM212.19 236.709C211.617 236.709 211.097 236.579 210.628 236.318C210.167 236.058 209.802 235.69 209.535 235.214C209.274 234.73 209.144 234.172 209.144 233.54C209.144 232.915 209.278 232.365 209.546 231.889C209.821 231.406 210.193 231.037 210.662 230.784C211.13 230.524 211.655 230.394 212.235 230.394C212.815 230.394 213.339 230.524 213.808 230.784C214.276 231.037 214.645 231.402 214.912 231.878C215.188 232.354 215.325 232.908 215.325 233.54C215.325 234.172 215.184 234.73 214.901 235.214C214.626 235.69 214.25 236.058 213.774 236.318C213.298 236.579 212.77 236.709 212.19 236.709ZM212.19 235.816C212.555 235.816 212.897 235.731 213.217 235.56C213.536 235.389 213.793 235.132 213.986 234.79C214.187 234.448 214.288 234.031 214.288 233.54C214.288 233.049 214.191 232.633 213.997 232.291C213.804 231.949 213.551 231.696 213.239 231.532C212.926 231.361 212.588 231.275 212.224 231.275C211.852 231.275 211.509 231.361 211.197 231.532C210.892 231.696 210.647 231.949 210.461 232.291C210.275 232.633 210.182 233.049 210.182 233.54C210.182 234.039 210.271 234.459 210.45 234.801C210.636 235.143 210.881 235.4 211.186 235.571C211.491 235.734 211.826 235.816 212.19 235.816ZM224.013 230.383C224.489 230.383 224.913 230.483 225.284 230.684C225.656 230.877 225.95 231.171 226.166 231.565C226.382 231.96 226.489 232.439 226.489 233.005V236.608H225.485V233.15C225.485 232.54 225.333 232.075 225.028 231.755C224.73 231.428 224.325 231.264 223.812 231.264C223.284 231.264 222.863 231.435 222.551 231.777C222.239 232.112 222.082 232.599 222.082 233.239V236.608H221.078V233.15C221.078 232.54 220.926 232.075 220.621 231.755C220.323 231.428 219.918 231.264 219.405 231.264C218.877 231.264 218.456 231.435 218.144 231.777C217.832 232.112 217.675 232.599 217.675 233.239V236.608H216.66V230.494H217.675V231.376C217.876 231.056 218.144 230.81 218.479 230.639C218.821 230.468 219.196 230.383 219.606 230.383C220.119 230.383 220.572 230.498 220.967 230.729C221.361 230.959 221.655 231.298 221.848 231.744C222.019 231.313 222.302 230.978 222.696 230.74C223.09 230.502 223.529 230.383 224.013 230.383Z" fill="#282828"/>
<g filter="url(#filter3_d_319_822)">
<rect x="79.5654" y="60.3701" width="35.6631" height="35.6631" rx="8.68717" fill="url(#paint1_linear_319_822)" shape-rendering="crispEdges"/>
<rect x="77.704" y="58.5087" width="39.386" height="39.386" rx="10.5486" stroke="black" stroke-opacity="0.05" stroke-width="3.72291" shape-rendering="crispEdges"/>
<g clip-path="url(#clip1_319_822)">
<path fill-rule="evenodd" clip-rule="evenodd" d="M87.1963 70.5436C87.1963 69.1395 88.3358 68 89.7399 68H105.002C106.406 68 107.545 69.1381 107.545 70.5436V75.2776C107.545 78.1705 106.618 80.9872 104.899 83.3141C103.18 85.6411 100.761 87.3558 97.9958 88.2065C97.5887 88.3329 97.1528 88.3329 96.7457 88.2065C93.9808 87.3558 91.5614 85.6411 89.8427 83.3141C88.1239 80.9872 87.1964 78.1705 87.1963 75.2776V70.5436ZM97.3708 77.4477C98.2381 77.4477 99.0699 77.1032 99.6832 76.4898C100.297 75.8765 100.641 75.0447 100.641 74.1774C100.641 73.31 100.297 72.4782 99.6832 71.8649C99.0699 71.2515 98.2381 70.907 97.3708 70.907C96.5034 70.907 95.6716 71.2515 95.0583 71.8649C94.4449 72.4782 94.1004 73.31 94.1004 74.1774C94.1004 75.0447 94.4449 75.8765 95.0583 76.4898C95.6716 77.1032 96.5034 77.4477 97.3708 77.4477ZM103.406 81.6527C102.656 80.7879 101.729 80.0946 100.688 79.6198C99.6465 79.1451 98.5152 78.9 97.3708 78.9012C96.2263 78.9 95.095 79.1451 94.0537 79.6198C93.0124 80.0946 92.0855 80.7879 91.3358 81.6527C92.7819 83.7834 94.9103 85.3582 97.3708 86.1178C99.8312 85.3582 101.96 83.7834 103.406 81.6527Z" fill="white"/>
</g>
</g>
<g filter="url(#filter4_d_319_822)">
<rect x="361.079" y="225.729" width="43.1245" height="43.1245" rx="10.5047" fill="url(#paint2_linear_319_822)" shape-rendering="crispEdges"/>
<rect x="358.828" y="223.478" width="47.6263" height="47.6263" rx="12.7556" stroke="black" stroke-opacity="0.05" stroke-width="4.50181" shape-rendering="crispEdges"/>
<g clip-path="url(#clip2_319_822)">
<path d="M376.749 242.387C376.749 241.078 377.269 239.823 378.194 238.898C379.12 237.973 380.374 237.453 381.683 237.453C382.991 237.453 384.246 237.973 385.171 238.898C386.097 239.823 386.616 241.078 386.616 242.387C386.616 243.695 386.097 244.95 385.171 245.875C384.246 246.8 382.991 247.32 381.683 247.32C380.374 247.32 379.12 246.8 378.194 245.875C377.269 244.95 376.749 243.695 376.749 242.387ZM375.587 249.956C377.169 248.991 379.32 248.307 381.683 248.307C382.124 248.307 382.558 248.33 382.981 248.376C383.151 248.394 383.313 248.456 383.451 248.555C383.59 248.654 383.7 248.788 383.772 248.943C383.843 249.097 383.873 249.268 383.859 249.438C383.845 249.608 383.788 249.771 383.692 249.912C383.023 250.893 382.667 252.053 382.67 253.24C382.67 254.148 382.874 255.006 383.237 255.773C383.308 255.922 383.34 256.087 383.33 256.252C383.321 256.417 383.27 256.577 383.183 256.717C383.095 256.857 382.974 256.973 382.83 257.055C382.686 257.136 382.524 257.18 382.359 257.182L381.683 257.187C379.484 257.187 377.406 257.049 375.849 256.636C375.074 256.431 374.345 256.137 373.792 255.693C373.207 255.223 372.803 254.567 372.803 253.733C372.803 252.957 373.156 252.231 373.635 251.623C374.123 251.006 374.797 250.439 375.587 249.955V249.956ZM386.616 253.24C386.616 252.978 386.72 252.727 386.905 252.542C387.09 252.357 387.341 252.253 387.603 252.253H388.58C389.13 252.253 389.576 252.699 389.576 253.25V255.346C389.764 255.454 389.911 255.622 389.995 255.823C390.078 256.023 390.092 256.246 390.036 256.455C389.98 256.665 389.856 256.851 389.684 256.983C389.511 257.115 389.3 257.187 389.083 257.187H388.6C388.335 257.187 388.082 257.082 387.895 256.895C387.708 256.708 387.603 256.455 387.603 256.19V254.227C387.341 254.227 387.09 254.123 386.905 253.938C386.72 253.753 386.616 253.502 386.616 253.24ZM388.59 249.293C388.338 249.294 388.096 249.39 387.913 249.563C387.731 249.735 387.62 249.971 387.606 250.222C387.591 250.473 387.673 250.72 387.834 250.913C387.996 251.106 388.224 251.23 388.474 251.26L388.592 251.267C388.843 251.266 389.085 251.17 389.268 250.997C389.451 250.825 389.561 250.589 389.576 250.338C389.59 250.087 389.509 249.84 389.347 249.647C389.186 249.454 388.957 249.33 388.707 249.3L388.59 249.293Z" fill="white"/>
</g>
</g>
</g>
</g>
<defs>
<filter id="filter0_d_319_822" x="-22.2492" y="-10.7492" width="507.498" height="340.317" filterUnits="userSpaceOnUse" color-interpolation-filters="sRGB">
<feFlood flood-opacity="0" result="BackgroundImageFix"/>
<feColorMatrix in="SourceAlpha" type="matrix" values="0 0 0 0 0 0 0 0 0 0 0 0 0 0 0 0 0 0 127 0" result="hardAlpha"/>
<feOffset/>
<feGaussianBlur stdDeviation="16.3746"/>
<feComposite in2="hardAlpha" operator="out"/>
<feColorMatrix type="matrix" values="0 0 0 0 0 0 0 0 0 0 0 0 0 0 0 0 0 0 0.07 0"/>
<feBlend mode="normal" in2="BackgroundImageFix" result="effect1_dropShadow_319_822"/>
<feBlend mode="normal" in="SourceGraphic" in2="effect1_dropShadow_319_822" result="shape"/>
</filter>
<filter id="filter1_d_319_822" x="164.986" y="12.9363" width="342.497" height="186.298" filterUnits="userSpaceOnUse" color-interpolation-filters="sRGB">
<feFlood flood-opacity="0" result="BackgroundImageFix"/>
<feColorMatrix in="SourceAlpha" type="matrix" values="0 0 0 0 0 0 0 0 0 0 0 0 0 0 0 0 0 0 127 0" result="hardAlpha"/>
<feMorphology radius="6.57503" operator="dilate" in="SourceAlpha" result="effect1_dropShadow_319_822"/>
<feOffset/>
<feGaussianBlur stdDeviation="7.02706"/>
<feComposite in2="hardAlpha" operator="out"/>
<feColorMatrix type="matrix" values="0 0 0 0 0 0 0 0 0 0 0 0 0 0 0 0 0 0 0.02 0"/>
<feBlend mode="normal" in2="BackgroundImageFix" result="effect1_dropShadow_319_822"/>
<feBlend mode="normal" in="SourceGraphic" in2="effect1_dropShadow_319_822" result="shape"/>
</filter>
<filter id="filter2_d_319_822" x="12.7722" y="157.977" width="334.527" height="131.311" filterUnits="userSpaceOnUse" color-interpolation-filters="sRGB">
<feFlood flood-opacity="0" result="BackgroundImageFix"/>
<feColorMatrix in="SourceAlpha" type="matrix" values="0 0 0 0 0 0 0 0 0 0 0 0 0 0 0 0 0 0 127 0" result="hardAlpha"/>
<feMorphology radius="6.57503" operator="dilate" in="SourceAlpha" result="effect1_dropShadow_319_822"/>
<feOffset/>
<feGaussianBlur stdDeviation="7.02706"/>
<feComposite in2="hardAlpha" operator="out"/>
<feColorMatrix type="matrix" values="0 0 0 0 0 0 0 0 0 0 0 0 0 0 0 0 0 0 0.02 0"/>
<feBlend mode="normal" in2="BackgroundImageFix" result="effect1_dropShadow_319_822"/>
<feBlend mode="normal" in="SourceGraphic" in2="effect1_dropShadow_319_822" result="shape"/>
</filter>
<filter id="filter3_d_319_822" x="64.3666" y="45.1713" width="66.0608" height="66.0608" filterUnits="userSpaceOnUse" color-interpolation-filters="sRGB">
<feFlood flood-opacity="0" result="BackgroundImageFix"/>
<feColorMatrix in="SourceAlpha" type="matrix" values="0 0 0 0 0 0 0 0 0 0 0 0 0 0 0 0 0 0 127 0" result="hardAlpha"/>
<feMorphology radius="3.65776" operator="dilate" in="SourceAlpha" result="effect1_dropShadow_319_822"/>
<feOffset/>
<feGaussianBlur stdDeviation="3.90923"/>
<feComposite in2="hardAlpha" operator="out"/>
<feColorMatrix type="matrix" values="0 0 0 0 0 0 0 0 0 0 0 0 0 0 0 0 0 0 0.02 0"/>
<feBlend mode="normal" in2="BackgroundImageFix" result="effect1_dropShadow_319_822"/>
<feBlend mode="normal" in="SourceGraphic" in2="effect1_dropShadow_319_822" result="shape"/>
</filter>
<filter id="filter4_d_319_822" x="342.7" y="207.349" width="79.8824" height="79.8824" filterUnits="userSpaceOnUse" color-interpolation-filters="sRGB">
<feFlood flood-opacity="0" result="BackgroundImageFix"/>
<feColorMatrix in="SourceAlpha" type="matrix" values="0 0 0 0 0 0 0 0 0 0 0 0 0 0 0 0 0 0 127 0" result="hardAlpha"/>
<feMorphology radius="4.42302" operator="dilate" in="SourceAlpha" result="effect1_dropShadow_319_822"/>
<feOffset/>
<feGaussianBlur stdDeviation="4.72711"/>
<feComposite in2="hardAlpha" operator="out"/>
<feColorMatrix type="matrix" values="0 0 0 0 0 0 0 0 0 0 0 0 0 0 0 0 0 0 0.02 0"/>
<feBlend mode="normal" in2="BackgroundImageFix" result="effect1_dropShadow_319_822"/>
<feBlend mode="normal" in="SourceGraphic" in2="effect1_dropShadow_319_822" result="shape"/>
</filter>
<linearGradient id="paint0_linear_319_822" x1="239.008" y1="117.242" x2="191.591" y2="224.03" gradientUnits="userSpaceOnUse">
<stop stop-color="#8F00FF" stop-opacity="0.24"/>
<stop offset="1" stop-color="#8F00FF" stop-opacity="0"/>
</linearGradient>
<linearGradient id="paint1_linear_319_822" x1="79.5654" y1="76.3928" x2="115.229" y2="76.3928" gradientUnits="userSpaceOnUse">
<stop stop-color="#DA48FE"/>
<stop offset="1" stop-color="#52C7FA"/>
</linearGradient>
<linearGradient id="paint2_linear_319_822" x1="361.079" y1="245.103" x2="404.204" y2="245.103" gradientUnits="userSpaceOnUse">
<stop stop-color="#DA48FE"/>
<stop offset="1" stop-color="#52C7FA"/>
</linearGradient>
<clipPath id="clip0_319_822">
<rect x="10.5" y="22" width="442" height="274.819" rx="15.2677" fill="white"/>
</clipPath>
<clipPath id="clip1_319_822">
<rect width="20.3489" height="20.3489" fill="white" transform="translate(87.1963 68)"/>
</clipPath>
<clipPath id="clip2_319_822">
<rect width="23.6804" height="23.6804" fill="white" transform="translate(370.829 235.479)"/>
</clipPath>
</defs>
</svg>
