<svg width="46" height="47" viewBox="0 0 46 47" fill="none" xmlns="http://www.w3.org/2000/svg">
<path d="M44.3204 18.424C44.2031 18.3283 44.1145 18.202 44.0645 18.059C44.0145 17.9161 44.005 17.7621 44.037 17.6141C44.12 17.2502 44.1632 16.8784 44.1659 16.5052C44.1642 15.2656 43.6709 14.0772 42.7943 13.2008C41.9177 12.3243 40.7292 11.8312 39.4896 11.8297C39.4252 11.8259 39.3605 11.8284 39.2966 11.8371C39.1533 11.8615 39.0062 11.8475 38.8702 11.7964C38.7342 11.7454 38.6141 11.6592 38.5222 11.5467C38.4304 11.4341 38.37 11.2992 38.3473 11.1557C38.3246 11.0122 38.3404 10.8652 38.393 10.7298C38.58 10.2333 38.673 9.70626 38.6674 9.1757C38.6656 7.93621 38.1725 6.74798 37.296 5.87153C36.4196 4.99508 35.2313 4.50192 33.9918 4.50018C33.9252 4.49731 33.8585 4.49978 33.7922 4.50757C33.6009 4.53833 33.4049 4.50045 33.2388 4.40065C33.0727 4.30084 32.9472 4.14552 32.8846 3.96215C32.5703 3.04831 31.9782 2.25557 31.1911 1.69486C30.404 1.13415 29.4613 0.833513 28.4949 0.835011C27.3383 0.829662 26.2207 1.2526 25.3574 2.02232C24.4941 2.79205 23.9462 3.85407 23.8194 5.00371V8.38631C23.8189 8.66396 23.7524 8.9375 23.6254 9.18442C23.4984 9.43134 23.3147 9.64456 23.0892 9.80655C22.8752 9.96344 22.6266 10.0665 22.3644 10.1072C22.1022 10.1478 21.8341 10.1247 21.5827 10.0398C20.9684 9.84306 20.3105 9.82727 19.6875 9.99434C19.0646 10.1614 18.5028 10.5043 18.0695 10.982C17.7578 11.3319 17.5251 11.7449 17.3874 12.1928C17.2496 12.6407 17.2099 13.1131 17.271 13.5777C17.3338 14.0598 17.5026 14.5219 17.7653 14.931C18.028 15.34 18.3781 15.6858 18.7903 15.9434C19.2026 16.2011 19.6668 16.3641 20.1497 16.4209C20.6325 16.4777 21.1219 16.4268 21.5827 16.2719C21.8334 16.1866 22.1011 16.1632 22.3628 16.2037C22.6245 16.2442 22.8726 16.3473 23.0859 16.5044C23.312 16.6665 23.4964 16.8801 23.624 17.1274C23.7515 17.3747 23.8185 17.6488 23.8194 17.9271V22.1919H28.0826C28.1041 22.1926 28.1254 22.1866 28.1433 22.1747C28.1613 22.1628 28.1751 22.1455 28.1828 22.1254C28.0114 21.6175 27.9249 21.085 27.9265 20.5491C27.9331 19.2902 28.4211 18.0816 29.2905 17.1711C30.1599 16.2607 31.3447 15.7174 32.6019 15.6528C33.8592 15.5882 35.0934 16.0071 36.0516 16.8236C37.0098 17.6401 37.6191 18.7923 37.7548 20.0439C37.8305 20.7452 37.7529 21.4546 37.5272 22.1229C37.5355 22.1429 37.5493 22.16 37.5671 22.1722C37.5849 22.1845 37.6059 22.1913 37.6274 22.1919H45.9878C45.9878 22.1286 45.9977 22.0662 45.9977 22.003C46.0017 21.3193 45.8532 20.6433 45.563 20.0242C45.2729 19.4051 44.8484 18.8584 44.3204 18.424Z" fill="white"/>
<path d="M0.00993457 22.1919H8.37033C8.64831 22.1922 8.92225 22.2584 9.1697 22.385C9.41714 22.5117 9.63104 22.6952 9.79385 22.9205C9.95048 23.134 10.0535 23.3819 10.0943 23.6435C10.135 23.9051 10.1123 24.1727 10.028 24.4237C9.9135 24.7632 9.85577 25.1193 9.8571 25.4776C9.85829 25.9535 9.96286 26.4235 10.1636 26.8551C10.3643 27.2866 10.6564 27.6694 11.0197 27.977C11.3829 28.2845 11.8086 28.5095 12.2674 28.6363C12.7261 28.7631 13.207 28.7887 13.6766 28.7114C14.1462 28.6341 14.5934 28.4556 14.9873 28.1885C15.3812 27.9213 15.7123 27.5717 15.9578 27.1639C16.2032 26.7561 16.3572 26.2999 16.4089 25.8268C16.4607 25.3536 16.4091 24.8749 16.2576 24.4237C16.1737 24.173 16.1513 23.9057 16.1923 23.6446C16.2333 23.3834 16.3366 23.1359 16.4933 22.923C16.6557 22.6974 16.8692 22.5135 17.1164 22.3864C17.3635 22.2593 17.6373 22.1927 17.9152 22.1919H22.1784V17.9271C22.1782 17.9059 22.1718 17.8853 22.16 17.8678C22.1481 17.8502 22.1314 17.8366 22.1118 17.8285C21.0827 18.1764 19.9675 18.1745 18.9395 17.8231C17.9115 17.4718 17.0285 16.7906 16.4276 15.8855C15.8267 14.9805 15.5417 13.9023 15.6169 12.8185C15.6921 11.7348 16.1232 10.7062 16.8433 9.89279C17.4919 9.17642 18.3334 8.66234 19.2669 8.41218C20.2003 8.16202 21.1861 8.18641 22.1061 8.48242C22.127 8.4765 22.1454 8.46389 22.1584 8.44654C22.1715 8.42918 22.1785 8.40803 22.1784 8.38631V5.00371C22.0516 3.85407 21.5037 2.79205 20.6404 2.02232C19.7771 1.2526 18.6595 0.829662 17.5029 0.835011C16.5363 0.833342 15.5935 1.1339 14.8062 1.69462C14.019 2.25535 13.4267 3.04817 13.1124 3.96215C13.0497 4.14552 12.9243 4.30084 12.7582 4.40065C12.5921 4.50045 12.396 4.53833 12.2047 4.50757C12.1385 4.49978 12.0717 4.49731 12.0051 4.50018C10.7656 4.50192 9.5774 4.99508 8.70094 5.87153C7.82449 6.74798 7.33134 7.93621 7.3296 9.1757C7.32395 9.70626 7.41698 10.2333 7.60395 10.7298C7.65657 10.8652 7.67234 11.0122 7.64963 11.1557C7.62693 11.2992 7.56657 11.4341 7.47472 11.5467C7.38287 11.6592 7.2628 11.7454 7.12677 11.7964C6.99074 11.8475 6.84361 11.8615 6.70039 11.8371C6.63637 11.8292 6.57179 11.8267 6.50736 11.8297C5.26787 11.8314 4.07964 12.3246 3.20319 13.201C2.32674 14.0775 1.83358 15.2657 1.83184 16.5052C1.83456 16.8784 1.8778 17.2502 1.9608 17.6141C1.99281 17.7621 1.98328 17.9161 1.93327 18.059C1.88326 18.202 1.79471 18.3283 1.67741 18.424C1.14942 18.8584 0.724911 19.4051 0.434757 20.0242C0.144604 20.6433 -0.00389044 21.3193 7.7474e-05 22.003C7.7474e-05 22.0662 0.00747031 22.1286 0.00993457 22.1919Z" fill="white"/>
<path d="M3.21098 35.2946C3.34693 35.3586 3.46269 35.4587 3.54568 35.584C3.62867 35.7093 3.6757 35.8549 3.68166 36.0051C3.74464 37.3376 4.2814 38.6038 5.19523 39.5756C6.10907 40.5474 7.33991 41.161 8.66603 41.3057C8.8336 41.3235 8.99166 41.3924 9.11877 41.503C9.24587 41.6136 9.33587 41.7607 9.37655 41.9242C9.72397 43.3294 10.5332 44.5772 11.6744 45.4676C12.8156 46.358 14.2228 46.8395 15.6703 46.8347C19.2213 46.8347 22.0141 44.3507 22.1784 41.0535V37.6414C22.179 37.3633 22.2456 37.0894 22.3727 36.842C22.4998 36.5947 22.6837 36.3811 22.9094 36.2187C23.1231 36.0622 23.3714 35.9595 23.6331 35.9191C23.8949 35.8788 24.1626 35.9021 24.4134 35.987C24.8743 36.1416 25.3637 36.1923 25.8465 36.1352C26.3292 36.0782 26.7934 35.9149 27.2055 35.6572C27.6177 35.3994 27.9676 35.0536 28.2302 34.6445C28.4928 34.2354 28.6615 33.7732 28.7243 33.2911C28.7856 32.8268 28.7463 32.3547 28.609 31.907C28.4716 31.4592 28.2395 31.0463 27.9283 30.6963C27.4951 30.2185 26.9335 29.8756 26.3107 29.7086C25.6878 29.5415 25.03 29.5573 24.4159 29.7541C24.1648 29.8391 23.8969 29.8623 23.6349 29.8217C23.3729 29.7811 23.1246 29.6779 22.9111 29.5208C22.6851 29.3591 22.5008 29.146 22.3735 28.8991C22.2461 28.6521 22.1792 28.3784 22.1784 28.1006V23.835H17.9152C17.8935 23.8355 17.8724 23.8424 17.8546 23.8548C17.8368 23.8672 17.823 23.8846 17.815 23.9048C18.0413 24.5761 18.1187 25.2886 18.0417 25.9928C17.9255 27.0977 17.4395 28.131 16.6624 28.925C15.8852 29.7189 14.8626 30.2271 13.7605 30.3669C13.5556 30.3928 13.3493 30.4059 13.1428 30.4063C12.3603 30.4055 11.5892 30.2187 10.8931 29.8613C10.1971 29.5039 9.59592 28.9861 9.13932 28.3507C8.68272 27.7152 8.38373 26.9804 8.26702 26.2066C8.15031 25.4329 8.21922 24.6425 8.46806 23.9007C8.46019 23.8812 8.44668 23.8646 8.42926 23.8528C8.41183 23.8411 8.39131 23.8349 8.37031 23.835H0.37216C0.613485 24.4049 0.97167 24.9178 1.42358 25.3406C1.50283 25.4142 1.56677 25.5027 1.61174 25.601C1.65672 25.6993 1.68183 25.8056 1.68565 25.9137C1.68946 26.0217 1.67191 26.1295 1.63398 26.2307C1.59606 26.332 1.53851 26.4248 1.46465 26.5038C0.517477 27.52 -0.00632964 28.8594 5.77361e-05 30.2486C-0.00469534 31.309 0.29544 32.3484 0.864716 33.243C1.43399 34.1376 2.24841 34.8497 3.21098 35.2946Z" fill="white"/>
<path d="M44.314 25.914C44.3176 25.8056 44.3426 25.6989 44.3876 25.6003C44.4325 25.5016 44.4966 25.4128 44.5761 25.339C45.0277 24.9168 45.3859 24.4048 45.6275 23.8358H37.6293C37.3514 23.835 37.0776 23.7683 36.8305 23.6412C36.5833 23.5142 36.3698 23.3303 36.2075 23.1047C36.0507 22.8918 35.9475 22.6443 35.9064 22.3831C35.8654 22.1219 35.8878 21.8547 35.9717 21.604C36.1225 21.1549 36.174 20.6785 36.1229 20.2076C36.0406 19.4732 35.7158 18.7872 35.1998 18.2582C34.6839 17.7291 34.0063 17.3872 33.2742 17.2866C32.7219 17.217 32.161 17.2886 31.6439 17.4947C31.1268 17.7009 30.6705 18.0348 30.3176 18.4653C29.9647 18.8959 29.7268 19.4089 29.6262 19.9563C29.5255 20.5038 29.5654 21.0679 29.7421 21.5958C29.8268 21.8473 29.8499 22.1155 29.8093 22.3779C29.7687 22.6402 29.6656 22.8889 29.5088 23.1031C29.3463 23.3292 29.1325 23.5136 28.8849 23.641C28.6373 23.7684 28.3629 23.8351 28.0845 23.8358H23.8213V28.1014C23.8216 28.1225 23.8281 28.1431 23.8401 28.1605C23.8521 28.1779 23.869 28.1913 23.8886 28.1991C24.809 27.9002 25.7961 27.8742 26.7309 28.1242C27.6657 28.3742 28.5081 28.8895 29.1564 29.6079C29.8765 30.4212 30.3077 31.4496 30.383 32.5333C30.4584 33.6169 30.1736 34.6951 29.5729 35.6002C28.9723 36.5053 28.0894 37.1866 27.0616 37.5382C26.0338 37.8898 24.9186 37.892 23.8895 37.5444C23.8694 37.5517 23.8521 37.565 23.8399 37.5825C23.8277 37.6 23.8212 37.6208 23.8213 37.6422V41.0543C23.9856 44.3515 26.7784 46.8355 30.3294 46.8355C31.7769 46.8403 33.184 46.3589 34.3253 45.4684C35.4665 44.578 36.2757 43.3302 36.6231 41.925C36.6638 41.7615 36.7538 41.6145 36.8809 41.5038C37.008 41.3932 37.1661 41.3243 37.3336 41.3065C38.6597 41.1618 39.8906 40.5482 40.8044 39.5764C41.7183 38.6046 42.255 37.3384 42.318 36.0059C42.324 35.8557 42.371 35.7101 42.454 35.5848C42.537 35.4595 42.6527 35.3594 42.7887 35.2954C43.7512 34.8505 44.5657 34.1384 45.1349 33.2438C45.7042 32.3492 46.0044 31.3098 45.9996 30.2494C46.006 28.8602 45.4822 27.5208 44.535 26.5046C44.4611 26.4255 44.4035 26.3327 44.3656 26.2313C44.3277 26.1299 44.3102 26.0221 44.314 25.914Z" fill="white"/>
</svg>
