<svg width="160" height="160" viewBox="0 0 160 160" fill="none" xmlns="http://www.w3.org/2000/svg">
<circle cx="81.5051" cy="80.0002" r="76.9953" stroke="#282828" stroke-width="3"/>
<circle cx="81.5038" cy="79.9999" r="63.453" stroke="#282828" stroke-width="3"/>
<mask id="path-3-outside-1_423_12449" maskUnits="userSpaceOnUse" x="39.627" y="51.3652" width="83" height="61" fill="black">
<rect fill="white" x="39.627" y="51.3652" width="83" height="61"/>
<path d="M120.836 82.2919C119.26 80.2543 116.477 79.7912 113.509 80.9952C112.767 81.2731 111.654 81.7362 110.355 82.2919L115.735 67.5653C116.199 66.2687 116.106 64.8794 115.549 63.6753C114.993 62.4713 113.973 61.5451 112.674 61.082C111.747 60.7115 110.726 60.7115 109.799 60.9893L110.448 59.1369C110.912 57.8403 110.819 56.451 110.262 55.2469C109.706 54.0429 108.686 53.1167 107.387 52.6536C104.79 51.7274 101.915 53.1167 100.987 55.6174C100.43 54.8764 99.5957 54.2281 98.6681 53.8576C96.071 52.9314 93.1956 54.3207 92.1753 56.9141L91.2478 59.5074C90.6913 58.7665 89.8565 58.1181 88.9289 57.8403C86.3318 56.9141 83.4564 58.3034 82.4361 60.9893L79.468 69.3251L78.0767 65.8056C77.6129 64.5089 76.5926 63.4901 75.3868 62.9344C74.181 62.3786 72.8824 62.3786 71.6766 62.8417C70.7491 63.2122 70.007 63.8606 69.4505 64.6015L68.4302 62.1008C67.9664 60.8041 66.9461 59.7853 65.7403 59.2296C64.5345 58.6739 63.236 58.6738 62.0301 59.1369C61.1026 59.5074 60.3606 60.1558 59.804 60.8967C59.2475 59.6927 58.32 58.7665 57.1142 58.2108C55.9083 57.655 54.6098 57.655 53.404 58.1181C50.8996 59.1369 49.601 62.1008 50.6213 64.6941L51.3634 66.5465C50.4358 66.3613 49.5083 66.3613 48.5807 66.7318C46.0764 67.7506 44.7778 70.7144 45.7981 73.3078L52.3837 89.9793L48.3952 87.5712C47.2822 86.8302 45.9836 86.4598 44.7778 86.645C43.4792 86.8302 42.2734 87.5712 41.5314 88.6826C39.9546 90.9055 40.5111 94.0546 42.6445 95.7217C43.4792 96.5553 54.2388 105.076 58.1345 107.855C61.0098 109.893 64.5345 111.004 68.0592 111.004C70.378 111.004 72.7897 110.541 75.1085 109.615C78.7259 108.133 81.7868 105.632 83.8274 102.298C84.9405 103.039 86.1463 103.594 87.4449 104.058C89.5782 104.798 91.8043 105.169 94.0304 105.169C97.9261 105.169 101.636 103.965 104.79 101.649C108.686 98.7782 119.352 89.8867 120.002 89.331C122.135 87.6638 122.506 84.4221 120.836 82.2919ZM74.181 107.484C69.0795 109.522 63.607 108.966 59.3403 106.003C55.5373 103.224 44.4068 94.3325 44.314 94.2398C43.1082 93.3136 42.83 91.5539 43.6648 90.2572C44.0358 89.7015 44.6851 89.2384 45.4271 89.1457C46.1691 89.0531 46.8184 89.2384 47.3749 89.6088C47.3749 89.6088 47.4677 89.6088 47.4677 89.7015L54.4243 93.8694C54.7953 94.1472 55.3518 94.0546 55.7228 93.7767C56.0939 93.4989 56.1866 92.9432 56.0011 92.4801L48.117 72.6594C47.5604 71.1775 48.2097 69.603 49.601 69.0473C50.1576 68.862 50.8069 68.862 51.4561 69.1399C52.1054 69.4177 52.6619 69.9735 53.033 70.6218L57.2069 81.3657C57.3924 81.8288 57.8562 82.1066 58.2272 82.1066C58.32 82.1066 58.5055 82.1066 58.5982 82.014C59.1548 81.8288 59.433 81.0878 59.2475 80.5321L55.1663 70.1587V70.0661C55.1663 69.9735 55.0736 69.8808 55.0736 69.7882L52.8474 64.0458C52.2909 62.5639 52.9402 60.9893 54.3315 60.4336C54.9808 60.1558 55.7228 60.1558 56.3721 60.4336C57.0214 60.7115 57.5779 61.2672 57.8562 62.0082L59.3403 65.8982L64.1635 78.4019C64.349 78.865 64.8128 79.1428 65.1838 79.1428C65.2765 79.1428 65.4621 79.1428 65.5548 79.0502C66.1113 78.865 66.3896 78.124 66.2041 77.5683L61.5664 65.4351L61.4736 65.1572C60.9171 63.6753 61.5664 62.1008 62.9577 61.5451C63.607 61.2672 64.349 61.2672 64.9983 61.5451C65.6476 61.8229 66.2041 62.3786 66.4824 63.1196L68.9867 69.4177C68.9867 69.5104 68.9867 69.5104 69.0795 69.603L72.4186 78.4019C72.6042 78.9576 73.3462 79.2354 73.9027 79.0502C74.4592 78.865 74.7375 78.124 74.552 77.5683L71.1201 68.7694C70.5636 67.2875 71.2128 65.713 72.6041 65.1572C73.2534 64.8794 73.9955 64.8794 74.6447 65.1572C75.294 65.4351 75.8506 65.9908 76.1288 66.7318L83.5492 85.9967C86.6101 94.7029 82.5289 104.15 74.181 107.484ZM118.518 87.5712C118.425 87.6638 107.202 96.9258 103.399 99.797C99.2247 102.946 93.4739 103.687 88.2797 101.835C87.1666 101.464 86.0535 100.908 85.0332 100.26C85.126 100.075 85.2188 99.8896 85.3115 99.6118C87.2594 95.0734 87.4449 89.9793 85.7753 85.2557L80.8593 72.6594L84.6622 61.8229C85.2188 60.341 86.7956 59.6 88.1869 60.0631C88.8362 60.341 89.3927 60.8041 89.7637 61.4524C90.042 62.1008 90.1347 62.9344 89.8565 63.5827L86.5173 73.0299C86.3318 73.5856 86.6101 74.234 87.1666 74.5118C87.2594 74.5118 87.4449 74.6044 87.5376 74.6044C88.0014 74.6044 88.4652 74.3266 88.6507 73.8635L91.9898 64.4163C91.9898 64.3237 91.9898 64.3237 92.0826 64.231L94.4014 57.8403C94.958 56.3584 96.5348 55.6174 97.9261 56.0805C98.5754 56.3584 99.1319 56.8215 99.5029 57.4698C99.7812 58.1181 99.874 58.9517 99.5957 59.6927L99.5029 59.9705L94.8652 73.4004C94.6797 73.9561 94.958 74.6044 95.6073 74.8823C95.7 74.8823 95.8855 74.9749 95.9783 74.9749C96.442 74.9749 96.9058 74.6971 97.0913 74.234L101.915 60.5262L103.306 56.6362C103.862 55.1543 105.439 54.4133 106.831 54.8764C107.48 55.1543 108.036 55.6174 108.407 56.2657C108.686 56.9141 108.778 57.7477 108.5 58.396L106.46 63.9532C106.367 64.1384 106.367 64.231 106.274 64.4163C106.274 64.5089 106.274 64.6015 106.181 64.6015L102.007 76.0864C101.822 76.6421 102.1 77.2904 102.657 77.5683C102.749 77.5683 102.935 77.6609 103.028 77.6609C103.491 77.6609 103.955 77.383 104.141 76.9199L108.5 64.8794C109.149 63.5827 110.726 62.8417 111.932 63.3048C112.581 63.5827 113.138 64.0458 113.509 64.6941C113.787 65.3425 113.88 66.176 113.602 66.8244L107.48 83.4033C106.46 83.7738 105.532 84.1443 105.068 84.3295C99.2247 82.1066 96.071 84.7 93.4739 86.7376C93.0101 87.1081 92.9174 87.8491 93.2884 88.3122C93.6594 88.7753 94.4014 88.8679 94.8652 88.4974C97.3696 86.4598 99.6885 84.5148 104.604 86.5524C104.883 86.645 105.161 86.645 105.439 86.5524C105.717 86.4598 112.118 83.959 114.344 83.0328C115.549 82.5697 117.776 81.9214 118.981 83.5886C120.002 84.8852 119.723 86.645 118.518 87.5712Z"/>
</mask>
<path d="M120.836 82.2919C119.26 80.2543 116.477 79.7912 113.509 80.9952C112.767 81.2731 111.654 81.7362 110.355 82.2919L115.735 67.5653C116.199 66.2687 116.106 64.8794 115.549 63.6753C114.993 62.4713 113.973 61.5451 112.674 61.082C111.747 60.7115 110.726 60.7115 109.799 60.9893L110.448 59.1369C110.912 57.8403 110.819 56.451 110.262 55.2469C109.706 54.0429 108.686 53.1167 107.387 52.6536C104.79 51.7274 101.915 53.1167 100.987 55.6174C100.43 54.8764 99.5957 54.2281 98.6681 53.8576C96.071 52.9314 93.1956 54.3207 92.1753 56.9141L91.2478 59.5074C90.6913 58.7665 89.8565 58.1181 88.9289 57.8403C86.3318 56.9141 83.4564 58.3034 82.4361 60.9893L79.468 69.3251L78.0767 65.8056C77.6129 64.5089 76.5926 63.4901 75.3868 62.9344C74.181 62.3786 72.8824 62.3786 71.6766 62.8417C70.7491 63.2122 70.007 63.8606 69.4505 64.6015L68.4302 62.1008C67.9664 60.8041 66.9461 59.7853 65.7403 59.2296C64.5345 58.6739 63.236 58.6738 62.0301 59.1369C61.1026 59.5074 60.3606 60.1558 59.804 60.8967C59.2475 59.6927 58.32 58.7665 57.1142 58.2108C55.9083 57.655 54.6098 57.655 53.404 58.1181C50.8996 59.1369 49.601 62.1008 50.6213 64.6941L51.3634 66.5465C50.4358 66.3613 49.5083 66.3613 48.5807 66.7318C46.0764 67.7506 44.7778 70.7144 45.7981 73.3078L52.3837 89.9793L48.3952 87.5712C47.2822 86.8302 45.9836 86.4598 44.7778 86.645C43.4792 86.8302 42.2734 87.5712 41.5314 88.6826C39.9546 90.9055 40.5111 94.0546 42.6445 95.7217C43.4792 96.5553 54.2388 105.076 58.1345 107.855C61.0098 109.893 64.5345 111.004 68.0592 111.004C70.378 111.004 72.7897 110.541 75.1085 109.615C78.7259 108.133 81.7868 105.632 83.8274 102.298C84.9405 103.039 86.1463 103.594 87.4449 104.058C89.5782 104.798 91.8043 105.169 94.0304 105.169C97.9261 105.169 101.636 103.965 104.79 101.649C108.686 98.7782 119.352 89.8867 120.002 89.331C122.135 87.6638 122.506 84.4221 120.836 82.2919ZM74.181 107.484C69.0795 109.522 63.607 108.966 59.3403 106.003C55.5373 103.224 44.4068 94.3325 44.314 94.2398C43.1082 93.3136 42.83 91.5539 43.6648 90.2572C44.0358 89.7015 44.6851 89.2384 45.4271 89.1457C46.1691 89.0531 46.8184 89.2384 47.3749 89.6088C47.3749 89.6088 47.4677 89.6088 47.4677 89.7015L54.4243 93.8694C54.7953 94.1472 55.3518 94.0546 55.7228 93.7767C56.0939 93.4989 56.1866 92.9432 56.0011 92.4801L48.117 72.6594C47.5604 71.1775 48.2097 69.603 49.601 69.0473C50.1576 68.862 50.8069 68.862 51.4561 69.1399C52.1054 69.4177 52.6619 69.9735 53.033 70.6218L57.2069 81.3657C57.3924 81.8288 57.8562 82.1066 58.2272 82.1066C58.32 82.1066 58.5055 82.1066 58.5982 82.014C59.1548 81.8288 59.433 81.0878 59.2475 80.5321L55.1663 70.1587V70.0661C55.1663 69.9735 55.0736 69.8808 55.0736 69.7882L52.8474 64.0458C52.2909 62.5639 52.9402 60.9893 54.3315 60.4336C54.9808 60.1558 55.7228 60.1558 56.3721 60.4336C57.0214 60.7115 57.5779 61.2672 57.8562 62.0082L59.3403 65.8982L64.1635 78.4019C64.349 78.865 64.8128 79.1428 65.1838 79.1428C65.2765 79.1428 65.4621 79.1428 65.5548 79.0502C66.1113 78.865 66.3896 78.124 66.2041 77.5683L61.5664 65.4351L61.4736 65.1572C60.9171 63.6753 61.5664 62.1008 62.9577 61.5451C63.607 61.2672 64.349 61.2672 64.9983 61.5451C65.6476 61.8229 66.2041 62.3786 66.4824 63.1196L68.9867 69.4177C68.9867 69.5104 68.9867 69.5104 69.0795 69.603L72.4186 78.4019C72.6042 78.9576 73.3462 79.2354 73.9027 79.0502C74.4592 78.865 74.7375 78.124 74.552 77.5683L71.1201 68.7694C70.5636 67.2875 71.2128 65.713 72.6041 65.1572C73.2534 64.8794 73.9955 64.8794 74.6447 65.1572C75.294 65.4351 75.8506 65.9908 76.1288 66.7318L83.5492 85.9967C86.6101 94.7029 82.5289 104.15 74.181 107.484ZM118.518 87.5712C118.425 87.6638 107.202 96.9258 103.399 99.797C99.2247 102.946 93.4739 103.687 88.2797 101.835C87.1666 101.464 86.0535 100.908 85.0332 100.26C85.126 100.075 85.2188 99.8896 85.3115 99.6118C87.2594 95.0734 87.4449 89.9793 85.7753 85.2557L80.8593 72.6594L84.6622 61.8229C85.2188 60.341 86.7956 59.6 88.1869 60.0631C88.8362 60.341 89.3927 60.8041 89.7637 61.4524C90.042 62.1008 90.1347 62.9344 89.8565 63.5827L86.5173 73.0299C86.3318 73.5856 86.6101 74.234 87.1666 74.5118C87.2594 74.5118 87.4449 74.6044 87.5376 74.6044C88.0014 74.6044 88.4652 74.3266 88.6507 73.8635L91.9898 64.4163C91.9898 64.3237 91.9898 64.3237 92.0826 64.231L94.4014 57.8403C94.958 56.3584 96.5348 55.6174 97.9261 56.0805C98.5754 56.3584 99.1319 56.8215 99.5029 57.4698C99.7812 58.1181 99.874 58.9517 99.5957 59.6927L99.5029 59.9705L94.8652 73.4004C94.6797 73.9561 94.958 74.6044 95.6073 74.8823C95.7 74.8823 95.8855 74.9749 95.9783 74.9749C96.442 74.9749 96.9058 74.6971 97.0913 74.234L101.915 60.5262L103.306 56.6362C103.862 55.1543 105.439 54.4133 106.831 54.8764C107.48 55.1543 108.036 55.6174 108.407 56.2657C108.686 56.9141 108.778 57.7477 108.5 58.396L106.46 63.9532C106.367 64.1384 106.367 64.231 106.274 64.4163C106.274 64.5089 106.274 64.6015 106.181 64.6015L102.007 76.0864C101.822 76.6421 102.1 77.2904 102.657 77.5683C102.749 77.5683 102.935 77.6609 103.028 77.6609C103.491 77.6609 103.955 77.383 104.141 76.9199L108.5 64.8794C109.149 63.5827 110.726 62.8417 111.932 63.3048C112.581 63.5827 113.138 64.0458 113.509 64.6941C113.787 65.3425 113.88 66.176 113.602 66.8244L107.48 83.4033C106.46 83.7738 105.532 84.1443 105.068 84.3295C99.2247 82.1066 96.071 84.7 93.4739 86.7376C93.0101 87.1081 92.9174 87.8491 93.2884 88.3122C93.6594 88.7753 94.4014 88.8679 94.8652 88.4974C97.3696 86.4598 99.6885 84.5148 104.604 86.5524C104.883 86.645 105.161 86.645 105.439 86.5524C105.717 86.4598 112.118 83.959 114.344 83.0328C115.549 82.5697 117.776 81.9214 118.981 83.5886C120.002 84.8852 119.723 86.645 118.518 87.5712Z" fill="#282828"/>
<path d="M120.836 82.2919C119.26 80.2543 116.477 79.7912 113.509 80.9952C112.767 81.2731 111.654 81.7362 110.355 82.2919L115.735 67.5653C116.199 66.2687 116.106 64.8794 115.549 63.6753C114.993 62.4713 113.973 61.5451 112.674 61.082C111.747 60.7115 110.726 60.7115 109.799 60.9893L110.448 59.1369C110.912 57.8403 110.819 56.451 110.262 55.2469C109.706 54.0429 108.686 53.1167 107.387 52.6536C104.79 51.7274 101.915 53.1167 100.987 55.6174C100.43 54.8764 99.5957 54.2281 98.6681 53.8576C96.071 52.9314 93.1956 54.3207 92.1753 56.9141L91.2478 59.5074C90.6913 58.7665 89.8565 58.1181 88.9289 57.8403C86.3318 56.9141 83.4564 58.3034 82.4361 60.9893L79.468 69.3251L78.0767 65.8056C77.6129 64.5089 76.5926 63.4901 75.3868 62.9344C74.181 62.3786 72.8824 62.3786 71.6766 62.8417C70.7491 63.2122 70.007 63.8606 69.4505 64.6015L68.4302 62.1008C67.9664 60.8041 66.9461 59.7853 65.7403 59.2296C64.5345 58.6739 63.236 58.6738 62.0301 59.1369C61.1026 59.5074 60.3606 60.1558 59.804 60.8967C59.2475 59.6927 58.32 58.7665 57.1142 58.2108C55.9083 57.655 54.6098 57.655 53.404 58.1181C50.8996 59.1369 49.601 62.1008 50.6213 64.6941L51.3634 66.5465C50.4358 66.3613 49.5083 66.3613 48.5807 66.7318C46.0764 67.7506 44.7778 70.7144 45.7981 73.3078L52.3837 89.9793L48.3952 87.5712C47.2822 86.8302 45.9836 86.4598 44.7778 86.645C43.4792 86.8302 42.2734 87.5712 41.5314 88.6826C39.9546 90.9055 40.5111 94.0546 42.6445 95.7217C43.4792 96.5553 54.2388 105.076 58.1345 107.855C61.0098 109.893 64.5345 111.004 68.0592 111.004C70.378 111.004 72.7897 110.541 75.1085 109.615C78.7259 108.133 81.7868 105.632 83.8274 102.298C84.9405 103.039 86.1463 103.594 87.4449 104.058C89.5782 104.798 91.8043 105.169 94.0304 105.169C97.9261 105.169 101.636 103.965 104.79 101.649C108.686 98.7782 119.352 89.8867 120.002 89.331C122.135 87.6638 122.506 84.4221 120.836 82.2919ZM74.181 107.484C69.0795 109.522 63.607 108.966 59.3403 106.003C55.5373 103.224 44.4068 94.3325 44.314 94.2398C43.1082 93.3136 42.83 91.5539 43.6648 90.2572C44.0358 89.7015 44.6851 89.2384 45.4271 89.1457C46.1691 89.0531 46.8184 89.2384 47.3749 89.6088C47.3749 89.6088 47.4677 89.6088 47.4677 89.7015L54.4243 93.8694C54.7953 94.1472 55.3518 94.0546 55.7228 93.7767C56.0939 93.4989 56.1866 92.9432 56.0011 92.4801L48.117 72.6594C47.5604 71.1775 48.2097 69.603 49.601 69.0473C50.1576 68.862 50.8069 68.862 51.4561 69.1399C52.1054 69.4177 52.6619 69.9735 53.033 70.6218L57.2069 81.3657C57.3924 81.8288 57.8562 82.1066 58.2272 82.1066C58.32 82.1066 58.5055 82.1066 58.5982 82.014C59.1548 81.8288 59.433 81.0878 59.2475 80.5321L55.1663 70.1587V70.0661C55.1663 69.9735 55.0736 69.8808 55.0736 69.7882L52.8474 64.0458C52.2909 62.5639 52.9402 60.9893 54.3315 60.4336C54.9808 60.1558 55.7228 60.1558 56.3721 60.4336C57.0214 60.7115 57.5779 61.2672 57.8562 62.0082L59.3403 65.8982L64.1635 78.4019C64.349 78.865 64.8128 79.1428 65.1838 79.1428C65.2765 79.1428 65.4621 79.1428 65.5548 79.0502C66.1113 78.865 66.3896 78.124 66.2041 77.5683L61.5664 65.4351L61.4736 65.1572C60.9171 63.6753 61.5664 62.1008 62.9577 61.5451C63.607 61.2672 64.349 61.2672 64.9983 61.5451C65.6476 61.8229 66.2041 62.3786 66.4824 63.1196L68.9867 69.4177C68.9867 69.5104 68.9867 69.5104 69.0795 69.603L72.4186 78.4019C72.6042 78.9576 73.3462 79.2354 73.9027 79.0502C74.4592 78.865 74.7375 78.124 74.552 77.5683L71.1201 68.7694C70.5636 67.2875 71.2128 65.713 72.6041 65.1572C73.2534 64.8794 73.9955 64.8794 74.6447 65.1572C75.294 65.4351 75.8506 65.9908 76.1288 66.7318L83.5492 85.9967C86.6101 94.7029 82.5289 104.15 74.181 107.484ZM118.518 87.5712C118.425 87.6638 107.202 96.9258 103.399 99.797C99.2247 102.946 93.4739 103.687 88.2797 101.835C87.1666 101.464 86.0535 100.908 85.0332 100.26C85.126 100.075 85.2188 99.8896 85.3115 99.6118C87.2594 95.0734 87.4449 89.9793 85.7753 85.2557L80.8593 72.6594L84.6622 61.8229C85.2188 60.341 86.7956 59.6 88.1869 60.0631C88.8362 60.341 89.3927 60.8041 89.7637 61.4524C90.042 62.1008 90.1347 62.9344 89.8565 63.5827L86.5173 73.0299C86.3318 73.5856 86.6101 74.234 87.1666 74.5118C87.2594 74.5118 87.4449 74.6044 87.5376 74.6044C88.0014 74.6044 88.4652 74.3266 88.6507 73.8635L91.9898 64.4163C91.9898 64.3237 91.9898 64.3237 92.0826 64.231L94.4014 57.8403C94.958 56.3584 96.5348 55.6174 97.9261 56.0805C98.5754 56.3584 99.1319 56.8215 99.5029 57.4698C99.7812 58.1181 99.874 58.9517 99.5957 59.6927L99.5029 59.9705L94.8652 73.4004C94.6797 73.9561 94.958 74.6044 95.6073 74.8823C95.7 74.8823 95.8855 74.9749 95.9783 74.9749C96.442 74.9749 96.9058 74.6971 97.0913 74.234L101.915 60.5262L103.306 56.6362C103.862 55.1543 105.439 54.4133 106.831 54.8764C107.48 55.1543 108.036 55.6174 108.407 56.2657C108.686 56.9141 108.778 57.7477 108.5 58.396L106.46 63.9532C106.367 64.1384 106.367 64.231 106.274 64.4163C106.274 64.5089 106.274 64.6015 106.181 64.6015L102.007 76.0864C101.822 76.6421 102.1 77.2904 102.657 77.5683C102.749 77.5683 102.935 77.6609 103.028 77.6609C103.491 77.6609 103.955 77.383 104.141 76.9199L108.5 64.8794C109.149 63.5827 110.726 62.8417 111.932 63.3048C112.581 63.5827 113.138 64.0458 113.509 64.6941C113.787 65.3425 113.88 66.176 113.602 66.8244L107.48 83.4033C106.46 83.7738 105.532 84.1443 105.068 84.3295C99.2247 82.1066 96.071 84.7 93.4739 86.7376C93.0101 87.1081 92.9174 87.8491 93.2884 88.3122C93.6594 88.7753 94.4014 88.8679 94.8652 88.4974C97.3696 86.4598 99.6885 84.5148 104.604 86.5524C104.883 86.645 105.161 86.645 105.439 86.5524C105.717 86.4598 112.118 83.959 114.344 83.0328C115.549 82.5697 117.776 81.9214 118.981 83.5886C120.002 84.8852 119.723 86.645 118.518 87.5712Z" stroke="#282828" mask="url(#path-3-outside-1_423_12449)"/>
<path d="M55.2594 50.3389L61.0101 54.0437C61.1956 54.1363 61.3811 54.229 61.6594 54.229C62.0304 54.229 62.4014 54.0437 62.587 53.6732C62.958 53.1175 62.7725 52.4692 62.2159 52.0987L56.4652 48.3939C55.9086 48.0234 55.2594 48.2087 54.8883 48.7644C54.5173 49.3201 54.7028 49.9685 55.2594 50.3389Z" fill="#282828"/>
<path d="M68.5649 49.4938L68.5645 49.4939L68.5694 49.5061C68.6774 49.7757 68.8448 50.0037 69.0774 50.1634C69.3105 50.3234 69.5935 50.4041 69.9146 50.4041H69.9183C69.9643 50.4041 70.051 50.4042 70.1411 50.3892C70.2142 50.377 70.3195 50.3506 70.4116 50.282C71.0698 50.0344 71.4847 49.2683 71.268 48.5108L71.2683 48.5107L71.264 48.4983L68.1111 39.3311C68.111 39.3307 68.1109 39.3303 68.1107 39.33C67.8816 38.6458 67.0966 38.2077 66.3213 38.4289L66.3213 38.4286L66.311 38.4321C65.6256 38.6602 65.1857 39.4446 65.4075 40.22L65.4072 40.2201L65.4112 40.2318L68.5649 49.4938Z" fill="#282828" stroke="#282828" stroke-width="0.5"/>
<path d="M78.8196 48.5811C78.9123 48.6737 79.0979 48.6737 79.1906 48.6737C79.6544 48.6737 80.1182 48.3959 80.2109 47.9328L82.5298 41.542C82.7153 40.9863 82.437 40.3379 81.8805 40.0601C81.324 39.8748 80.6747 40.1527 80.3964 40.7084L78.0776 47.0992C77.892 47.7475 78.2631 48.3959 78.8196 48.5811Z" fill="#282828"/>
<path d="M86.9812 112.487C86.4246 112.301 85.7754 112.672 85.5898 113.228L83.642 119.711C83.4565 120.267 83.8275 120.915 84.384 121.1C84.4768 121.1 84.5696 121.193 84.7551 121.193C85.2188 121.193 85.6826 120.915 85.8681 120.359L87.816 113.876C87.9087 113.32 87.6304 112.672 86.9812 112.487Z" fill="#282828"/>
<path d="M96.8592 110.725L96.8557 110.717L96.8516 110.709C96.5211 110.049 95.7466 109.708 95.0651 109.935L95.0482 109.941L95.0323 109.949C94.3716 110.279 94.0302 111.052 94.2576 111.733L94.2603 111.742L94.2637 111.75L97.9728 120.731C97.973 120.732 97.9732 120.732 97.9734 120.733C98.1962 121.287 98.7497 121.629 99.2252 121.629L99.2352 121.629C99.32 121.629 99.4079 121.629 99.4981 121.614C99.5981 121.598 99.6917 121.565 99.8007 121.51C100.461 121.181 100.803 120.407 100.575 119.726L100.573 119.717L100.569 119.709L96.8592 110.725Z" fill="#282828" stroke="#282828" stroke-width="0.5"/>
<path d="M110.17 108.596L104.234 105.261C103.677 104.984 103.028 105.169 102.657 105.725C102.379 106.28 102.564 106.929 103.121 107.299L109.057 110.633C109.243 110.726 109.428 110.819 109.614 110.819C109.985 110.819 110.356 110.633 110.634 110.263C110.912 109.615 110.727 108.966 110.17 108.596Z" fill="#282828"/>
<path d="M97.8095 16.8022C97.8095 19.1594 95.8986 21.0702 93.5415 21.0702C91.1843 21.0702 89.2734 19.1594 89.2734 16.8022C89.2734 14.445 91.1843 12.5342 93.5415 12.5342C95.8986 12.5342 97.8095 14.445 97.8095 16.8022Z" fill="#EFBF59" stroke="#282828" stroke-width="3"/>
<path d="M78.2489 144.201C78.2489 146.558 76.3381 148.469 73.9809 148.469C71.6238 148.469 69.7129 146.558 69.7129 144.201C69.7129 141.843 71.6238 139.933 73.9809 139.933C76.3381 139.933 78.2489 141.843 78.2489 144.201Z" fill="#EFBF59" stroke="#282828" stroke-width="3"/>
<path d="M27.5907 51.9126C27.5907 54.2697 25.6799 56.1806 23.3227 56.1806C20.9655 56.1806 19.0547 54.2697 19.0547 51.9126C19.0547 49.5554 20.9655 47.6445 23.3227 47.6445C25.6799 47.6445 27.5907 49.5554 27.5907 51.9126Z" fill="#97DED7" stroke="#282828" stroke-width="3"/>
<path d="M146.964 128.151C146.964 130.508 145.053 132.419 142.696 132.419C140.339 132.419 138.428 130.508 138.428 128.151C138.428 125.794 140.339 123.883 142.696 123.883C145.053 123.883 146.964 125.794 146.964 128.151Z" fill="#7457F6" stroke="#282828" stroke-width="3"/>
<path d="M6.62438 101.254L9.19101 102.611L9.20434 102.618L9.21781 102.624L11.8112 103.929L10.4547 106.496L10.4477 106.509L10.4409 106.523L9.1363 109.116L6.56966 107.759L6.55634 107.752L6.54287 107.746L3.94949 106.441L5.30595 103.874L5.313 103.861L5.31977 103.848L6.62438 101.254Z" fill="#7155FD" stroke="#282828" stroke-width="3"/>
<path d="M142.533 59.851L145.028 61.3356L145.041 61.3433L145.054 61.3508L147.578 62.7849L146.093 65.2796L146.085 65.2926L146.078 65.3057L144.644 67.8297L142.149 66.3451L142.136 66.3374L142.123 66.33L139.599 64.8958L141.084 62.4011L141.091 62.3881L141.099 62.375L142.533 59.851Z" fill="#97DED8" stroke="#282828" stroke-width="3"/>
</svg>
