<svg width="21" height="22" viewBox="0 0 21 22" fill="none" xmlns="http://www.w3.org/2000/svg">
<path d="M2.625 5.75006H4.375H18.375" stroke="#282828" stroke-width="1.75" stroke-linecap="round" stroke-linejoin="round"/>
<path d="M16.625 5.75006V18.0001C16.625 18.4642 16.4406 18.9093 16.1124 19.2375C15.7842 19.5657 15.3391 19.7501 14.875 19.7501H6.125C5.66087 19.7501 5.21575 19.5657 4.88756 19.2375C4.55937 18.9093 4.375 18.4642 4.375 18.0001V5.75006M7 5.75006V4.00006C7 3.53593 7.18437 3.09081 7.51256 2.76262C7.84075 2.43444 8.28587 2.25006 8.75 2.25006H12.25C12.7141 2.25006 13.1592 2.43444 13.4874 2.76262C13.8156 3.09081 14 3.53593 14 4.00006V5.75006" stroke="#282828" stroke-width="1.75" stroke-linecap="round" stroke-linejoin="round"/>
<path d="M8.75 10.1251V15.3751" stroke="#282828" stroke-width="1.75" stroke-linecap="round" stroke-linejoin="round"/>
<path d="M12.25 10.1251V15.3751" stroke="#282828" stroke-width="1.75" stroke-linecap="round" stroke-linejoin="round"/>
</svg>
