<svg width="32" height="33" viewBox="0 0 32 33" fill="none" xmlns="http://www.w3.org/2000/svg">
<rect y="0.834961" width="32" height="32" rx="16" fill="#50ABF1"/>
<path d="M24 11.6352C23.4111 11.9152 22.7763 12.0992 22.1185 12.1872C22.7916 11.7632 23.3117 11.0912 23.5564 10.2832C22.9216 10.6832 22.218 10.9632 21.4761 11.1232C20.8719 10.4352 20.0229 10.0352 19.0593 10.0352C17.262 10.0352 15.7935 11.5712 15.7935 13.4672C15.7935 13.7392 15.8241 14.0032 15.8776 14.2512C13.1549 14.1072 10.7304 12.7392 9.11663 10.6672C8.83365 11.1712 8.67304 11.7632 8.67304 12.3872C8.67304 13.5792 9.24665 14.6352 10.1338 15.2352C9.59082 15.2352 9.08604 15.0752 8.64245 14.8352V14.8592C8.64245 16.5232 9.77438 17.9152 11.2734 18.2272C10.7921 18.3649 10.2869 18.3841 9.79732 18.2832C10.0051 18.9651 10.4119 19.5619 10.9606 19.9895C11.5094 20.4171 12.1724 20.6541 12.8566 20.6672C11.6968 21.6275 10.2593 22.1466 8.78011 22.1392C8.52008 22.1392 8.26004 22.1232 8 22.0912C9.45316 23.0672 11.1816 23.6352 13.0325 23.6352C19.0593 23.6352 22.3709 18.4032 22.3709 13.8672C22.3709 13.7152 22.3709 13.5712 22.3633 13.4192C23.0057 12.9392 23.5564 12.3312 24 11.6352Z" fill="white"/>
</svg>
