<svg width="32" height="33" viewBox="0 0 32 33" fill="none" xmlns="http://www.w3.org/2000/svg">
<rect y="0.834961" width="32" height="32" rx="16" fill="#FF0F1C"/>
<path d="M14.4 19.2349L18.552 16.8349L14.4 14.4349V19.2349ZM23.648 12.9709C23.752 13.3469 23.824 13.8509 23.872 14.4909C23.928 15.1309 23.952 15.6829 23.952 16.1629L24 16.8349C24 18.5869 23.872 19.8749 23.648 20.6989C23.448 21.4189 22.984 21.8829 22.264 22.0829C21.888 22.1869 21.2 22.2589 20.144 22.3069C19.104 22.3629 18.152 22.3869 17.272 22.3869L16 22.4349C12.648 22.4349 10.56 22.3069 9.736 22.0829C9.016 21.8829 8.552 21.4189 8.352 20.6989C8.248 20.3229 8.176 19.8189 8.128 19.1789C8.072 18.5389 8.048 17.9869 8.048 17.5069L8 16.8349C8 15.0829 8.128 13.7949 8.352 12.9709C8.552 12.2509 9.016 11.7869 9.736 11.5869C10.112 11.4829 10.8 11.4109 11.856 11.3629C12.896 11.3069 13.848 11.2829 14.728 11.2829L16 11.2349C19.352 11.2349 21.44 11.3629 22.264 11.5869C22.984 11.7869 23.448 12.2509 23.648 12.9709Z" fill="white"/>
</svg>
